<svg id="Слой_1" data-name="Слой 1" xmlns="http://www.w3.org/2000/svg" viewBox="0 0 75.17 89.59"><title>feature1</title><path d="M44.9.79,9.4,11.29a2.1,2.1,0,0,0-1.5,2V53.79a2.1,2.1,0,0,0,.2.89c.46,1,11.54,24.34,36.54,35.43a2.1,2.1,0,0,0,1.7,0C71.34,79,82.42,55.67,82.88,54.68a2.1,2.1,0,0,0,.2-.89V13.3a2.1,2.1,0,0,0-1.5-2L46.08.79A2,2,0,0,0,44.9.79ZM43.4,84.88C23.56,74.78,13.58,56.25,12.09,53.31V14.87L43.4,5.6V16.25a2.12,2.12,0,0,0,.1.62A26.66,26.66,0,0,0,43.4,70Zm4.18-68.63V5.6l31.31,9.26V53.31c-1.48,2.94-11.42,21.45-31.31,31.57V70A26.66,26.66,0,0,0,65.74,26.1a2.09,2.09,0,1,0-3.18,2.72A22.41,22.41,0,1,1,52.08,22a2.09,2.09,0,1,0,1.22-4,26.58,26.58,0,0,0-5.82-1.09A2,2,0,0,0,47.58,16.25Z" transform="translate(-7.9 -0.7)"/><path d="M48,29.92V27.83a2.09,2.09,0,0,0-4.18,0v2.09h-1c-4.9,0-8.87,3.4-8.87,7.59v.3c0,2.38,1.67,4.45,5,6.14a2.27,2.27,0,0,0,.55.2l3.26.64,1.14.23V52.4h-1c-2.54,0-4.69-1.56-4.69-3.42V47.23a2.09,2.09,0,0,0-4.18,0V49c0,4.2,4,7.61,8.87,7.61h1v1.88a2.09,2.09,0,1,0,4.18,0V56.59h.22c4.89,0,8.86-3.41,8.86-7.6v-.3c0-1.66-.88-4.08-5.08-6.23l-.21-.07a.85.85,0,0,0-.17-.06,1.15,1.15,0,0,0-.17-.06h-.09L48,41.58V34.1h.22c2.54,0,4.69,1.56,4.69,3.41a2.09,2.09,0,0,0,4.18,0c0-4.19-4-7.6-8.87-7.6H48ZM43.81,40.75l-3.28-.65h0c-1.8-1-2.44-1.84-2.44-2.29v-.3c0-1.85,2.14-3.41,4.68-3.41h1v6.65Zm6.52,5.57c1.76.94,2.56,1.88,2.56,2.37V49c0,1.86-2.14,3.42-4.68,3.42H48V45.85Z" transform="translate(-7.9 -0.7)"/></svg>