<svg id="Слой_1" data-name="Слой 1" xmlns="http://www.w3.org/2000/svg" viewBox="0 0 63.71 89.54"><title>feature4</title><path d="M30.66,62.29c-1.59,1.46-3.19,2.92-4.79,4.36-5.26,4.74-7.86,11.14-8,19.6V97.89H14.84a2.09,2.09,0,0,0,0,4.18H74.36a2.09,2.09,0,0,0,0-4.18H71.3V86.23c-.1-8.44-2.71-14.84-8-19.57-1.64-1.48-3.26-3-4.88-4.46l-3.81-3.48a4.32,4.32,0,0,1-1.75-3,4.73,4.73,0,0,1,1.83-3.12h0q1.88-1.7,3.73-3.41c1.62-1.49,3.24-3,4.88-4.45,5.26-4.73,7.87-11.13,8-19.59V16.73h3.06a2.1,2.1,0,0,0,0-4.19H14.84a2.1,2.1,0,0,0,0,4.19H17.9v8.4c.1,8.43,2.71,14.83,8,19.57,1.62,1.45,3.22,2.93,4.82,4.4l3.87,3.53h0a4.66,4.66,0,0,1,1.76,3,4.37,4.37,0,0,1-1.76,3C33.25,59.9,32,61.1,30.66,62.29Zm.92,35.34A16,16,0,1,1,58,97.87v0H46.78A2.13,2.13,0,0,0,47,97v-.29C50.36,96.48,53,94,53,90.87v-.2c0-1.32-.65-3.22-3.76-4.86a1,1,0,0,0-.16-.06,2,2,0,0,0-.26-.09l-.13,0h-.07L47,85.25V81.34c1.05.18,1.89.87,1.89,1.64a2.1,2.1,0,0,0,4.19,0c0-3.08-2.68-5.61-6.08-5.85V77a2.1,2.1,0,1,0-4.19,0v.09h0c-3.65,0-6.62,2.64-6.62,5.88v.2c0,1.89,1.24,3.51,3.68,4.79a1.82,1.82,0,0,0,.55.2l.13,0,.08,0,2.18.45v3.89h0c-1.3,0-2.43-.79-2.43-1.7a2.1,2.1,0,0,0-4.19,0c0,3.25,3,5.89,6.62,5.89h0V97a2,2,0,0,0,.19.86H31.72A1.57,1.57,0,0,0,31.58,97.63Zm11.2-13.24-1.24-.25a3.09,3.09,0,0,1-1.19-1V83c0-.9,1.13-1.69,2.43-1.69h0v3.1Zm4.8,5.26a3.78,3.78,0,0,1,1.27,1v.2c0,.78-.83,1.46-1.88,1.65v-3ZM37.37,61.82c2.6-2.35,3.14-4.65,3.13-6.16a8.36,8.36,0,0,0-3.11-6.11l0,0,0,0,0-.05h0C36,48.3,34.77,47.15,33.52,46c-1.61-1.48-3.22-3-4.85-4.42-4.4-4-6.5-9.21-6.58-16.49V16.73h45v8.35c-.09,7.3-2.18,12.55-6.58,16.51-1.65,1.48-3.28,3-4.91,4.47q-1.89,1.74-3.79,3.47l0,0a8.3,8.3,0,0,0-3.09,6.08c0,1.51.53,3.81,3.13,6.16l3.79,3.47c1.63,1.49,3.26,3,4.91,4.48,4.4,4,6.49,9.2,6.58,16.48V97.89H62.87a20.23,20.23,0,1,0-36,0H22.08V86.28c.09-7.3,2.19-12.55,6.59-16.52,1.62-1.45,3.22-2.92,4.81-4.39Z" transform="translate(-12.75 -12.54)"/><path d="M40.67,48.1a12.39,12.39,0,0,1,1.32,3,2,2,0,0,0,.32.66,2.84,2.84,0,0,0,5-.25,2,2,0,0,0,.19-.53.29.29,0,0,0,0-.09,7.17,7.17,0,0,1,1.25-2.79.32.32,0,0,1,.06-.08,8,8,0,0,1,.62-.76l.32-.33c.15-.15.29-.31.44-.45,1.06-1,2.1-1.91,3.15-2.87,1.34-1.23,2.69-2.47,4.05-3.69a14.87,14.87,0,0,0,3-3.66,2.1,2.1,0,0,0-2.77-2.91c-2.85,1.45-4.29,2.09-6.21,2.09a20.62,20.62,0,0,1-6-1.25,18.9,18.9,0,0,0-5.83-.93,19.55,19.55,0,0,0-8.27,1.88,2.1,2.1,0,0,0-.7,3.25A18.27,18.27,0,0,0,32.05,40c1.36,1.22,2.71,2.46,4.05,3.69l3.15,2.88c.14.12.25.25.37.37l.14.15.2.2.06,0a7.86,7.86,0,0,1,.59.73Zm-1.73-7.53L36,37.92a14.47,14.47,0,0,1,3.51-.43,14.91,14.91,0,0,1,4.55.72,23.57,23.57,0,0,0,7.42,1.45c-.33.31-6.6,6.7-6.81,7.06C44.5,46.32,40,41.52,38.94,40.57Z" transform="translate(-12.75 -12.54)"/><path d="M43.12,57.19a2.1,2.1,0,0,0,0,3,2.08,2.08,0,0,0,3,0,2.08,2.08,0,0,0,0-3A2.17,2.17,0,0,0,43.12,57.19Z" transform="translate(-12.75 -12.54)"/><path d="M43.12,62.56a2.1,2.1,0,1,0,3,0A2.16,2.16,0,0,0,43.12,62.56Z" transform="translate(-12.75 -12.54)"/></svg>