<?xml version="1.0" encoding="UTF-8" standalone="no"?>
<svg
   xmlns:dc="http://purl.org/dc/elements/1.1/"
   xmlns:cc="http://creativecommons.org/ns#"
   xmlns:rdf="http://www.w3.org/1999/02/22-rdf-syntax-ns#"
   xmlns:svg="http://www.w3.org/2000/svg"
   xmlns="http://www.w3.org/2000/svg"
   height="20"
   width="20"
   xml:space="preserve"
   viewBox="0 0 20 20"
   y="0px"
   x="0px"
   id="icons"
   version="1.1"><metadata
     id="metadata3445"><rdf:RDF><cc:Work
         rdf:about=""><dc:format>image/svg+xml</dc:format><dc:type
           rdf:resource="http://purl.org/dc/dcmitype/StillImage" /><dc:title></dc:title></cc:Work></rdf:RDF></metadata><defs
     id="defs3443" /><g
     transform="translate(-145,-386)"
     id="g3437"><path
       id="path3439"
       d="m 149,406 0,-4 -2,0 c -1.1,0 -2,-0.9 -2,-2 l 0,-12 c 0,-1.1 0.9,-2 2,-2 l 16,0 c 1.1,0 2,0.9 2,2 l 0,12 c 0,1.1 -0.9,2 -2,2 l -8.7,0 -5.3,4 z m -2,-18 0,12 4,0 0,2 2.7,-2 9.3,0 0,-12 -16,0 z"
        /></g></svg>