<?xml version="1.0" encoding="UTF-8" standalone="no"?>
<svg
   xmlns:dc="http://purl.org/dc/elements/1.1/"
   xmlns:cc="http://creativecommons.org/ns#"
   xmlns:rdf="http://www.w3.org/1999/02/22-rdf-syntax-ns#"
   xmlns:svg="http://www.w3.org/2000/svg"
   xmlns="http://www.w3.org/2000/svg"
   height="18"
   width="20"
   xml:space="preserve"
   viewBox="0 0 20 18"
   y="0px"
   x="0px"
   id="icons"
   version="1.1"><metadata
     id="metadata3450"><rdf:RDF><cc:Work
         rdf:about=""><dc:format>image/svg+xml</dc:format><dc:type
           rdf:resource="http://purl.org/dc/dcmitype/StillImage" /><dc:title></dc:title></cc:Work></rdf:RDF></metadata><defs
     id="defs3448" /><g
     transform="translate(-433,-291)"
     id="g3424"><g
       id="g3426"><g
         id="g3428"><path
           id="path3430"
           d="m 436,305 c 0,-1.8 1.2,-3 3,-3 l 0,0 c 1.8,0 3,1.2 3,3 l -6,0 z"
           /></g><g
         id="g3432"><circle
           id="circle3434"
           r="2"
           cy="299"
           cx="439"
            /></g></g><g
       id="g3436"><rect
         id="rect3438"
         height="2"
         width="6"
         y="299"
         x="444" /></g><g
       id="g3440"><rect
         id="rect3442"
         height="2"
         width="6"
         y="303"
         x="444" /></g><path
       id="path3444"
       d="m 451,293 -5.2,0 c -0.4,-1.2 -1.5,-2 -2.8,-2 -1.3,0 -2.4,0.8 -2.8,2 l -5.2,0 c -1.1,0 -2,0.9 -2,2 l 0,12 c 0,1.1 0.9,2 2,2 l 16,0 c 1.1,0 2,-0.9 2,-2 l 0,-12 c 0,-1.1 -0.9,-2 -2,-2 z m -8,0 c 0.6,0 1,0.4 1,1 0,0.6 -0.4,1 -1,1 -0.6,0 -1,-0.4 -1,-1 0,-0.6 0.4,-1 1,-1 z m -8,14 0,-12 5.2,0 c 0.4,1.2 1.5,2 2.8,2 1.3,0 2.4,-0.8 2.8,-2 l 5.2,0 0,12 -16,0 z"
        /></g></svg>