<svg id="Слой_1" data-name="Слой 1" xmlns="http://www.w3.org/2000/svg" viewBox="0 0 88 88"><title>currency-rub</title><path d="M50,19A44,44,0,1,0,94,63,44,44,0,0,0,50,19Zm0,81A37,37,0,1,1,87,63,37,37,0,0,1,50,100Z" transform="translate(-6 -19)"/><path d="M66,44c-2.3-2.12-5.32-3-9.05-3H38V60H34v5h4v3H34v6h4v9h6V74H58V68H44V65H56.92c4.23,0,7.36-1.17,9.41-3.62a12.74,12.74,0,0,0,3.08-8.52C69.41,49,68.27,46.15,66,44ZM61.25,58.49A10.75,10.75,0,0,1,55,60H44V45H55a11.88,11.88,0,0,1,5.17,1.21c2.28,1.11,3.42,3.31,3.43,6.42C63.63,55.39,62.84,57.4,61.25,58.49Z" transform="translate(-6 -19)"/></svg>