<svg id="Layer_1" data-name="Layer 1" xmlns="http://www.w3.org/2000/svg" xmlns:xlink="http://www.w3.org/1999/xlink" viewBox="0 0 88 88"><defs><style>.cls-1{fill:none;}.cls-2{clip-path:url(#clip-path);}</style><clipPath id="clip-path" transform="translate(0 0)"><rect class="cls-1" width="88" height="88"/></clipPath></defs><title>currency-usd</title><g class="cls-2"><path d="M44,0A44,44,0,1,0,88,44,44,44,0,0,0,44,0m0,81A37,37,0,1,1,81,44,37,37,0,0,1,44,81" transform="translate(0 0)"/><path d="M42,68.63V62.57a17.47,17.47,0,0,1-9.18-2.64l1.44-4a16,16,0,0,0,8.64,2.58C47.12,58.49,50,56,50,52.61s-2.34-5.34-6.78-7.14c-6.12-2.4-9.9-5.16-9.9-10.38,0-5,3.54-8.76,9.06-9.66V19.37H46.1v5.82a16,16,0,0,1,7.8,2.1l-1.5,4a14.5,14.5,0,0,0-7.56-2c-4.62,0-6.36,2.76-6.36,5.16,0,3.12,2.22,4.68,7.44,6.84,6.18,2.52,9.3,5.64,9.3,11,0,4.74-3.3,9.18-9.48,10.2v6.24Z" transform="translate(0 0)"/></g></svg>