<?xml version="1.0" encoding="UTF-8" standalone="no"?>
<svg
   xmlns:dc="http://purl.org/dc/elements/1.1/"
   xmlns:cc="http://creativecommons.org/ns#"
   xmlns:rdf="http://www.w3.org/1999/02/22-rdf-syntax-ns#"
   xmlns:svg="http://www.w3.org/2000/svg"
   xmlns="http://www.w3.org/2000/svg"
   height="20"
   width="20"
   xml:space="preserve"
   viewBox="0 0 20 20"
   y="0px"
   x="0px"
   id="icons"
   version="1.1"><metadata
     id="metadata3493"><rdf:RDF><cc:Work
         rdf:about=""><dc:format>image/svg+xml</dc:format><dc:type
           rdf:resource="http://purl.org/dc/dcmitype/StillImage" /><dc:title></dc:title></cc:Work></rdf:RDF></metadata><defs
     id="defs3491" /><path
     id="path3483"
     d="M 10,0 C 4.5,0 0,4.5 0,10 0,15.5 4.5,20 10,20 15.5,20 20,15.5 20,10 20,4.5 15.5,0 10,0 Z m 0,18 C 5.6,18 2,14.4 2,10 2,5.6 5.6,2 10,2 c 4.4,0 8,3.6 8,8 0,4.4 -3.6,8 -8,8 z"
      /><path
     id="path3485"
     d="M 9.9,5 C 8.2,5 7.2,6 7.2,6 l 1,1.2 c 0,0 0.7,-0.6 1.5,-0.6 0.8,0 1.4,0.5 1.4,1.2 0,1.5 -2.3,1.8 -2.3,3.9 l 0,0.7 1.7,0 0,-0.6 C 10.5,10.3 13,10 13,7.6 13,6 11.5,5 9.9,5 Z"
      /><rect
     id="rect3487"
     height="1.7"
     width="1.7"
     y="13.600006"
     x="8.7999878" /></svg>