<svg id="Слой_1" data-name="Слой 1" xmlns="http://www.w3.org/2000/svg" viewBox="0 0 89.38 83.27"><title>feature2</title><path d="M11,40.5a2.1,2.1,0,0,0,.76,4,2.21,2.21,0,0,0,.75-.14c1.23-.48,30.45-12,47.83-37.29a2.09,2.09,0,0,0-2.14-3.23L45.43,6.46a2.09,2.09,0,1,0,.83,4.1l7.43-1.5C36.8,30.34,11.27,40.39,11,40.5Z" transform="translate(-1.07 -3.84)"/><path d="M13.47,82.92H5.2a2.1,2.1,0,0,0,0,4.19H88a2.1,2.1,0,0,0,0-4.19H82.35V26.41h6a2.09,2.09,0,0,0,1.56-3.49L75.78,7.11a2.16,2.16,0,0,0-3.12,0L58.52,22.92a2.09,2.09,0,0,0,1.56,3.49h6V82.92H57.22V37.42a2.1,2.1,0,0,0-2.1-2.09H43.06A2.1,2.1,0,0,0,41,37.42v45.5H24.11A17.72,17.72,0,1,0,6.26,53.49a17.72,17.72,0,0,0,7.21,29.43Zm54.72-60.7H64.77l9.45-10.57,9.45,10.57H80.25a2.1,2.1,0,0,0-2.09,2.09V82.92H70.29V24.31A2.1,2.1,0,0,0,68.19,22.22Zm-23,17.3H53v43.4H45.15ZM9.22,56.45a13.53,13.53,0,1,1-4,9.57A13.47,13.47,0,0,1,9.22,56.45Z" transform="translate(-1.07 -3.84)"/><path d="M14.72,69.85a2.09,2.09,0,0,0-4.18,0c0,3.17,2.87,5.74,6.42,5.77v.2a2.1,2.1,0,0,0,4.19,0v-.23c3.29-.27,5.88-2.74,5.88-5.74v-.19c0-1.29-.64-3.16-3.67-4.76a1,1,0,0,0-.16-.06,2.65,2.65,0,0,0-.3-.11.29.29,0,0,0-.1,0h-.06l-1.59-.32V60.7c1,.2,1.7.88,1.7,1.51a2.1,2.1,0,0,0,4.19,0c0-3-2.6-5.47-5.89-5.74v0a2.1,2.1,0,0,0-4.19,0v0c-3.55,0-6.42,2.6-6.42,5.76v.19c0,1.29.62,3.15,3.6,4.71a2.13,2.13,0,0,0,.55.2l.13,0,.07,0,2.07.43v3.65C15.64,71.4,14.72,70.59,14.72,69.85Zm0-7.64c0-.74.91-1.55,2.23-1.57V63.5l-1.12-.23c-1-.56-1.11-.88-1.11-.87Zm6.92,6.53a3.94,3.94,0,0,1,1.19.92v.19c0,.7-.74,1.32-1.69,1.52V68.63Z" transform="translate(-1.07 -3.84)"/></svg>