<svg id="Слой_1" data-name="Слой 1" xmlns="http://www.w3.org/2000/svg" viewBox="0 0 89.35 89.62"><title>feature3</title><path d="M3,78.77H33.06v7.55H22.88a2.1,2.1,0,0,0,0,4.19H68.27a2.1,2.1,0,1,0,0-4.19H58.09V78.77H80.28a10,10,0,0,0,10-10V20.49a2.09,2.09,0,0,0-2.1-2.09H66.81a2.09,2.09,0,0,0,0,4.18H86.06V68.8a5.78,5.78,0,0,1-5.78,5.78H5.09V66.67H78.53a2.1,2.1,0,1,0,0-4.19H5.09V22.58H23.28a2.09,2.09,0,1,0,0-4.18H3A2.09,2.09,0,0,0,.9,20.49V76.67A2.1,2.1,0,0,0,3,78.77Zm50.91,0v7.55H37.25V78.77Z" transform="translate(-0.9 -0.89)"/><path d="M44.09,68.88a2.1,2.1,0,1,0,3,0A2.16,2.16,0,0,0,44.09,68.88Z" transform="translate(-0.9 -0.89)"/><path d="M45.58,24.74a7,7,0,0,0,7-7,2.1,2.1,0,0,0-4.19,0,2.81,2.81,0,1,1-2.82-2.81,2.09,2.09,0,1,0,0-4.18,7,7,0,0,0,0,14Z" transform="translate(-0.9 -0.89)"/><path d="M41.71,34.59a2,2,0,0,0,.55-.07,2.11,2.11,0,0,0,1.27-1l1.57-2.72a10.09,10.09,0,0,0,1.1,0l1.6,2.7a2.13,2.13,0,0,0,1.28,1,2.06,2.06,0,0,0,1.59-.23l6.94-4.11a2.1,2.1,0,0,0,.73-2.87l-1.6-2.71q.21-.35.39-.69h3.15a2.1,2.1,0,0,0,2.1-2.1V13.71a2.1,2.1,0,0,0-2.1-2.1H57.13c-.14-.27-.3-.54-.47-.81l1.58-2.73a2.1,2.1,0,0,0,.21-1.59,2.06,2.06,0,0,0-1-1.27l-7-4a2.13,2.13,0,0,0-2.87.77L46.05,4.67a10.09,10.09,0,0,0-1.1,0L43.35,2a2.12,2.12,0,0,0-1.29-1,2.09,2.09,0,0,0-1.58.22L33.54,5.34a2.1,2.1,0,0,0-.73,2.87l1.6,2.72a7.69,7.69,0,0,0-.39.69H30.86a2.09,2.09,0,0,0-2.09,2.09v8.07a2.1,2.1,0,0,0,2.09,2.09H34c.15.28.31.55.48.82l-1.58,2.73a2.1,2.1,0,0,0,.77,2.86l7,4A2,2,0,0,0,41.71,34.59Zm-3.1-11.32A8.78,8.78,0,0,1,37.3,21a2.08,2.08,0,0,0-1.95-1.33H33V15.8h2.39a2.07,2.07,0,0,0,1.95-1.33,8.87,8.87,0,0,1,1.25-2.17,2.12,2.12,0,0,0,.15-2.36L37.47,7.88l3.34-2L42,8a2.11,2.11,0,0,0,2.12,1,7.84,7.84,0,0,1,2.73,0,2.1,2.1,0,0,0,2.12-1l1.2-2.08,3.36,1.94-1.2,2.07a2.11,2.11,0,0,0,.18,2.35,8.51,8.51,0,0,1,1.3,2.26,2.11,2.11,0,0,0,1.95,1.33h2.4v3.88h-2.4A2.07,2.07,0,0,0,53.85,21a8.88,8.88,0,0,1-1.24,2.17,2.1,2.1,0,0,0-.16,2.37l1.22,2.07-3.33,2-1.23-2.06a2.08,2.08,0,0,0-2.14-1,7.64,7.64,0,0,1-2.7,0,2.11,2.11,0,0,0-2.13,1l-1.2,2.08L37.58,27.7l1.2-2.08A2.07,2.07,0,0,0,38.61,23.27Z" transform="translate(-0.9 -0.89)"/><path d="M13.21,33.44a2.1,2.1,0,0,0-2.09,2.1V56.48a2.1,2.1,0,0,0,2.09,2.09H32.89A2.1,2.1,0,0,0,35,56.48V35.54a2.1,2.1,0,0,0-2.1-2.1ZM30.8,54.38H15.31V37.63H30.8Z" transform="translate(-0.9 -0.89)"/><path d="M80.63,47.26v-6.7a2.1,2.1,0,0,0-2.1-2.09H41.68a2.1,2.1,0,0,0-2.09,2.09v6.7a2.1,2.1,0,0,0,2.09,2.1H78.53A2.1,2.1,0,0,0,80.63,47.26Zm-4.19-2.09H43.78V42.66H76.44Z" transform="translate(-0.9 -0.89)"/><path d="M41.69,51.38a2.1,2.1,0,1,0,0,4.19H63.88a2.1,2.1,0,0,0,0-4.19Z" transform="translate(-0.9 -0.89)"/></svg>