<?xml version="1.0" encoding="UTF-8" standalone="no"?>
<svg
   xmlns:dc="http://purl.org/dc/elements/1.1/"
   xmlns:cc="http://creativecommons.org/ns#"
   xmlns:rdf="http://www.w3.org/1999/02/22-rdf-syntax-ns#"
   xmlns:svg="http://www.w3.org/2000/svg"
   xmlns="http://www.w3.org/2000/svg"
   height="19"
   width="20"
   xml:space="preserve"
   viewBox="0 0 20 19"
   y="0px"
   x="0px"
   id="icons"
   version="1.1"><metadata
     id="metadata3374"><rdf:RDF><cc:Work
         rdf:about=""><dc:format>image/svg+xml</dc:format><dc:type
           rdf:resource="http://purl.org/dc/dcmitype/StillImage" /><dc:title></dc:title></cc:Work></rdf:RDF></metadata><defs
     id="defs3372" /><g
     transform="translate(-49,-1011)"
     id="g3364"><path
       id="path3366"
       d="m 67,1014 0,-1 -2,0 0,1 -2,0 0,-2 c 0,-0.6 -0.4,-1 -1,-1 l -6,0 c -0.6,0 -1,0.4 -1,1 l 0,2 -2,0 0,-1 -2,0 0,1 c -1.1,0 -2,0.9 -2,2 l 0,12 c 0,1.1 0.9,2 2,2 l 16,0 c 1.1,0 2,-0.9 2,-2 l 0,-12 c 0,-1.1 -0.9,-2 -2,-2 z m -10,-1 4,0 0,1 -4,0 0,-1 z m 10,15 -16,0 0,-12 16,0 0,12 z"
        /><path
       id="path3368"
       d="m 60,1017 -2,0 0,1.1 c -1.1,0.2 -2,1.2 -2,2.4 0,1.4 1.1,2.5 2.5,2.5 l 1,0 c 0.3,0 0.5,0.2 0.5,0.5 0,0.3 -0.2,0.5 -0.5,0.5 l -3.5,0 0,2 2,0 0,1 2,0 0,-1.1 c 1.1,-0.2 2,-1.2 2,-2.4 0,-1.4 -1.1,-2.5 -2.5,-2.5 l -1,0 c -0.3,0 -0.5,-0.2 -0.5,-0.5 0,-0.3 0.2,-0.5 0.5,-0.5 l 3.5,0 0,-2 -2,0 0,-1 z"
        /></g></svg>