<?xml version="1.0" encoding="UTF-8" standalone="no"?>
<svg
   xmlns:dc="http://purl.org/dc/elements/1.1/"
   xmlns:cc="http://creativecommons.org/ns#"
   xmlns:rdf="http://www.w3.org/1999/02/22-rdf-syntax-ns#"
   xmlns:svg="http://www.w3.org/2000/svg"
   xmlns="http://www.w3.org/2000/svg"
   height="111.3"
   width="262.39999"
   version="1.1"
   id="svg3336"
   viewBox="0 0 262.39999 111.3">
  <metadata
     id="metadata3348">
    <rdf:RDF>
      <cc:Work
         rdf:about="">
        <dc:format>image/svg+xml</dc:format>
        <dc:type
           rdf:resource="http://purl.org/dc/dcmitype/StillImage" />
        <dc:title></dc:title>
      </cc:Work>
    </rdf:RDF>
  </metadata>
  <defs
     id="defs3346" />
  <g
     transform="translate(-37.5,-14.3)"
     id="g3338">
    <path
       id="path3340"
       d="m 50.2,31.9 0,15.9 -0.2,0.2 -0.1,0.2 -12.4,10.5 0,23.4 13.2,12.2 0,15.2 26.8,16.1 13.6,-8.6 0,-27.4 -0.5,0.1 -0.8,0 -0.5,-0.1 0,26.4 -11.8,7.4 -10,-6 10,-6.4 -0.4,-0.4 c -0.2,-0.2 -0.3,-0.4 -0.4,-0.7 l -0.2,-0.5 -10.8,6.9 -13.1,-7.9 0,-14 10.9,-7 -0.5,-0.3 c -0.2,-0.2 -0.3,-0.4 -0.4,-0.7 l -0.2,-0.5 -10.7,6.9 -12.3,-11.5 0,-7.5 10.9,-7 -0.4,-0.4 C 49.7,66.2 49.6,66 49.5,65.7 l -0.2,-0.5 -9.8,6.3 0,-11.9 11.9,-10.1 13.5,9.3 0,14 -8,5.1 0.4,0.4 c 0.2,0.2 0.3,0.4 0.4,0.7 l 0.2,0.5 8,-5.1 12.2,7.9 0,11.5 -10.8,6.7 0.4,0.4 c 0.2,0.2 0.3,0.4 0.4,0.7 l 0.2,0.5 L 89,89.4 88.6,89 c -0.2,-0.2 -0.3,-0.4 -0.4,-0.7 l -0.2,-0.5 -8,4.9 0,-11.5 -13.2,-8.5 0,-14 13.2,-9.4 0,-14.3 -0.5,0.1 -0.8,0 -0.8,-0.1 0,13.3 -12.2,8.7 -13.6,-9.4 0,-14.8 12.7,-8.8 0,13.1 0.5,-0.1 0.8,0 0.5,0.1 0,-14.3 8.9,-6.2 13.7,10.1 0,58.4 0.5,-0.1 0.8,0 L 91,85.1 91,25.8 75.6,14.3 50.2,31.9 Z m 57.8,8.8 4.3,4.4 1.3,1.3 1.4,-1.3 11.3,-11.3 -1.4,-1.4 -11.3,11.3 -5.6,-5.6 -15.4,15.4 1.3,1.3 z m -9.4,-13.1 1.5,1.5 1.3,1.3 1.4,-1.3 8.4,-8.5 -1.3,-1.3 -8.5,8.4 -2.8,-2.8 -6,6 1.3,1.4 z m 12.2,32.9 6.2,6.2 1.4,1.3 1.3,-1.3 15,-15.1 -1.3,-1.3 -15,15.1 -7.6,-7.6 -18.2,18.3 1.3,1.3 z m 15.1,39.6 -14.1,14.1 -8.1,-8.9 0,-0.1 -0.7,-0.6 -0.6,-0.7 -0.7,0.7 -0.7,0.6 0.1,0 -8.5,8.5 1.3,1.3 8.4,-8.4 8.2,9 -0.1,0 0.7,0.6 0.6,0.7 0.1,0 0.6,-0.6 0.7,-0.7 14.1,-14.1 z m -9.4,-11.2 -6.9,-6.9 -0.6,-0.7 0,0.1 -0.1,-0.1 -0.6,0.7 -15.7,14.7 1.3,1.4 15,-14.1 6.2,6.2 1.4,1.3 1.3,-1.3 L 130,78 128.7,76.6 Z" />
    <path
       id="path3342"
       d="m 65.7,35.6 c -2.1,0 -3.8,1.7 -3.8,3.8 0,2.1 1.7,3.8 3.8,3.8 2.1,0 3.8,-1.7 3.8,-3.8 -0.1,-2.1 -1.7,-3.8 -3.8,-3.8 z m 0,5.7 c -1,0 -1.9,-0.8 -1.9,-1.9 0,-1 0.8,-1.9 1.9,-1.9 1,0 1.9,0.8 1.9,1.9 0,1 -0.9,1.9 -1.9,1.9 z M 78.9,29.1 c -2.1,0 -3.8,1.7 -3.8,3.8 0,2.1 1.7,3.8 3.8,3.8 2.1,0 3.8,-1.7 3.8,-3.8 -0.1,-2.2 -1.8,-3.8 -3.8,-3.8 z m 0,5.6 c -1,0 -1.9,-0.8 -1.9,-1.9 0,-1 0.8,-1.9 1.9,-1.9 1,0 1.9,0.8 1.9,1.9 -0.1,1.1 -0.9,1.9 -1.9,1.9 z m 11.2,48.9 c -2.1,0 -3.8,1.7 -3.8,3.8 0,2.1 1.7,3.8 3.8,3.8 2.1,0 3.8,-1.7 3.8,-3.8 0,-2.1 -1.7,-3.8 -3.8,-3.8 z m 0,5.7 c -1,0 -1.9,-0.8 -1.9,-1.9 0,-1 0.8,-1.9 1.9,-1.9 1,0 1.9,0.8 1.9,1.9 0,1 -0.8,1.8 -1.9,1.9 z M 55.3,64.8 c 0,-2.1 -1.7,-3.8 -3.8,-3.8 -2.1,0 -3.8,1.7 -3.8,3.8 0,2.1 1.7,3.8 3.8,3.8 2.2,0 3.8,-1.7 3.8,-3.8 z m -5.6,0 c 0,-1 0.8,-1.9 1.9,-1.9 1,0 1.9,0.8 1.9,1.9 0,1 -0.8,1.9 -1.9,1.9 -1.1,0 -1.9,-0.9 -1.9,-1.9 z m 15,24.5 c 2.1,0 3.8,-1.7 3.8,-3.8 0,-2.1 -1.7,-3.8 -3.8,-3.8 -2.1,0 -3.8,1.7 -3.8,3.8 0.1,2.1 1.8,3.8 3.8,3.8 z m 0,-5.7 c 1,0 1.9,0.8 1.9,1.9 0,1 -0.8,1.9 -1.9,1.9 -1,0 -1.9,-0.8 -1.9,-1.9 0.1,-1 0.9,-1.9 1.9,-1.9 z m 1,15.1 c -2.1,0 -3.8,1.7 -3.8,3.8 0,2.1 1.7,3.8 3.8,3.8 2.1,0 3.8,-1.7 3.8,-3.8 -0.1,-2.2 -1.7,-3.8 -3.8,-3.8 z m 0,5.6 c -1,0 -1.9,-0.8 -1.9,-1.9 0,-1 0.8,-1.9 1.9,-1.9 1,0 1.9,0.8 1.9,1.9 0,1.1 -0.9,1.9 -1.9,1.9 z m 13.2,0.9 c -2.1,0 -3.8,1.7 -3.8,3.8 0,2.1 1.7,3.8 3.8,3.8 2.1,0 3.8,-1.7 3.8,-3.8 -0.1,-2.1 -1.8,-3.8 -3.8,-3.8 z m 0,5.7 c -1,0 -1.9,-0.8 -1.9,-1.9 0,-1 0.8,-1.9 1.9,-1.9 1,0 1.9,0.8 1.9,1.9 -0.1,1 -0.9,1.9 -1.9,1.9 z M 55.3,76.1 c -2.1,0 -3.8,1.7 -3.8,3.8 0,2.1 1.7,3.8 3.8,3.8 2.1,0 3.8,-1.7 3.8,-3.8 0,-2.1 -1.7,-3.8 -3.8,-3.8 z m 0,5.6 c -1,0 -1.9,-0.8 -1.9,-1.9 0,-1 0.8,-1.9 1.9,-1.9 1,0 1.9,0.8 1.9,1.9 0,1.1 -0.8,1.9 -1.9,1.9 z m 64.5,19.8 6.1,0 0,6.1 1.9,0 0,-8 -8,0 z m 2.8,-23.5 6.1,0 0,6.1 1.9,0 0,-8 -8,0 z m 4.7,-28.2 0,1.8 6.1,0 0,6.1 1.9,0 0,-7.9 z m -2.4,-9.9 1.9,0 0,-8 -8,0 0,1.9 6.1,0 z m -21.1,-19.3 6.1,0 0,6.1 1.9,0 0,-8 -8,0 z m 58.4,36.6 0,-37.8 3.5,0 7.4,25.9 c 0.8,3.1 1.3,5.3 1.5,6.7 l 0.1,0 c -0.2,-5.4 -0.3,-10.7 -0.3,-16.8 l 0,-15.8 2.7,0 0,37.8 -3.3,0 -8.3,-29.4 c -0.6,-1.9 -0.8,-3.3 -1,-4.3 l -0.1,0 c 0.2,4.5 0.4,11.2 0.4,18.1 l 0,15.7 -2.6,0 z m 36.2,-19 -8.6,0 0,16.5 9.7,0 -0.4,2.5 -12.1,0 0,-37.8 11.9,0 0,2.6 -9.1,0 0,13.7 8.6,0 0,2.5 z m 11.1,-18.8 0,29.8 c 0,3.3 1.2,5.9 4.5,5.9 3.3,0 4.5,-2.2 4.5,-5.8 l 0,-29.9 2.8,0 0,29.7 c 0,5.8 -2.6,8.6 -7.4,8.6 -4.7,0 -7.2,-2.7 -7.2,-8.4 l 0,-29.9 2.8,0 z m 21.5,0 5.6,0 c 5.7,0 8,2.5 8,8.4 l 0,1.9 c 0,4.6 -1.4,7.2 -3.9,8 2.5,0.8 3.5,2.8 3.5,7.8 0,3.3 -0.1,9.3 0.4,11.7 l -2.6,0 c -0.5,-2.4 -0.4,-8.9 -0.4,-11.4 0,-5.1 -0.8,-6.7 -4.8,-6.7 l -3.1,0 0,18.2 -2.7,0 0,-37.9 z m 2.7,17.2 3.3,0 c 4,0 4.8,-2.7 4.8,-6.7 l 0,-1.9 c 0,-3.9 -1.2,-6.1 -5.3,-6.1 l -2.7,0 0,14.7 z m 23,7.2 -2.2,13.4 -2.8,0 6.3,-37.8 4,0 6.6,37.8 -2.9,0 -2.3,-13.4 -6.7,0 z M 263,41.3 C 261.4,31.7 260.3,25 260,21.9 l -0.1,0 c -0.1,2.8 -1.6,11.6 -2.8,19.4 l 5.9,0 z m 13,-21.9 2.8,0 0,35.3 9.5,0 -0.4,2.5 -11.9,0 0,-37.8 z m -113.8,60.4 12.1,0 0,2.5 -9.3,0 0,14 8.7,0 0,2.5 -8.7,0 0,18.7 -2.8,0 0,-37.7 z m 22.2,0 0,37.8 -2.8,0 0,-37.8 2.8,0 z m 9.9,37.8 0,-37.8 3.5,0 7.4,25.9 c 0.8,3.1 1.3,5.3 1.5,6.7 l 0.1,0 c -0.2,-5.4 -0.3,-10.7 -0.3,-16.8 l 0,-15.8 2.7,0 0,37.8 -3.3,0 -8.3,-29.4 c -0.6,-1.9 -0.8,-3.3 -1,-4.3 l -0.1,0 c 0.2,4.5 0.4,11.2 0.4,18.1 l 0,15.7 -2.6,0 z m 27.6,-13.4 -2.2,13.4 -2.8,0 6.3,-37.8 4,0 6.6,37.8 -2.9,0 -2.3,-13.4 -6.7,0 z m 6.3,-2.5 c -1.6,-9.6 -2.7,-16.3 -3,-19.4 l -0.1,0 c -0.1,2.8 -1.6,11.6 -2.8,19.4 l 5.9,0 z m 13,15.9 0,-37.8 3.5,0 7.4,25.9 c 0.8,3.1 1.3,5.3 1.5,6.7 l 0.1,0 c -0.2,-5.4 -0.3,-10.7 -0.3,-16.8 l 0,-15.8 2.7,0 0,37.8 -3.3,0 -8.3,-29.4 c -0.6,-1.9 -0.8,-3.3 -1,-4.3 l -0.1,0 c 0.2,4.5 0.4,11.2 0.4,18.1 l 0,15.7 -2.6,0 z m 38.1,-10.5 0,1.1 c 0,5.2 -1,9.9 -7,9.9 -6.2,0 -7.1,-4.8 -7.1,-10.2 l 0,-19.4 c 0,-6.2 2.5,-9.2 7.1,-9.2 5.8,0 6.9,4.4 6.9,9.1 l 0,1.3 -2.9,0 0,-1.4 c 0,-3.3 -0.4,-6.5 -4,-6.5 -3.5,0 -4.2,2.8 -4.2,6.7 l 0,19.4 c 0,4.7 1.1,7.6 4.3,7.6 3.6,0 4.1,-3.2 4.1,-7.3 l 0,-1.2 2.8,0 z m 19.5,-8.5 -8.6,0 0,16.5 9.7,0 -0.4,2.5 -12.1,0 0,-37.8 11.9,0 0,2.5 -9.1,0 0,13.7 8.6,0 0,2.6 z" />
  </g>
</svg>
