<svg xmlns="http://www.w3.org/2000/svg" height="35.900002" width="31.5" viewBox="0 0 31.5 35.900001" id="Слой_1">
  <g transform="translate(155.3 -6.9)" id="g3339">
    <g id="g3341">
        <path d="M-151.2 12.6v5.1l-.1.1v.1l-4 3.4v7.5l4.2 3.9v4.9l8.6 5.2 4.4-2.8v-8.8h-.6v8.5l-3.8 2.4-3.2-1.9 3.2-2.1-.1-.1c-.1-.1-.1-.1-.1-.2l-.1-.2-3.5 2.2-4.2-2.5v-4.5l3.5-2.3-.1-.1c-.1-.1-.1-.1-.1-.2l-.1-.2-3.4 2.2-4-3.7v-2.4l3.5-2.3-.1-.1c-.1-.1-.1-.1-.1-.2l-.1-.2-3.2 2v-3.8l3.8-3.3 4.3 3v4.5l-2.6 1.6.1.1c.1.1.1.1.1.2l.1.2 2.6-1.6 3.9 2.5v3.7l-3.5 2.1.1.1c.1.1.1.1.1.2l.1.2 6.7-4.1-.1-.1c-.1-.1-.1-.1-.1-.2l-.1-.2-2.6 1.6v-3.7l-4.2-2.7v-4.5l4.2-3v-4.6h-.6v4.3l-3.9 2.8-4.4-3v-4.8l4.1-2.8v4.2h.6V9.7l2.9-2 4.4 3.3v18.8h.6V10.6l-5-3.7-8.1 5.7z"/>
        <path d="M-130.3 16.9l3.6-3.7-.4-.4-3.6 3.6-1.9-1.8-4.9 5 .4.4 4.5-4.5 1.4 1.4.5.4z"/>
        <path d="M-134.2 11.7l2.7-2.7-.4-.5-2.8 2.8-.9-.9-1.9 1.9.4.4 1.5-1.5.5.5.4.4z"/>
        <path d="M-128.8 23.8l4.9-4.8-.5-.5-4.8 4.9-2.4-2.4-5.9 5.8.4.5 5.5-5.5 2 2 .4.4z"/>
        <path d="M-133.9 36.2l-.3-.2-.1-.2h-.1l-.2.2-.2.2-2.7 2.8.4.4 2.7-2.7 2.6 2.9.2.2.2.2h.1l.2-.2.2-.2 4.5-4.6-.4-.4-4.5 4.5-2.7-2.9z"/>
        <path d="M-132.2 28.5l-.3.3-5 4.7.4.4 4.8-4.5 2 2 .5.4.4-.4 3.9-3.9-.4-.5-3.9 4-2.2-2.2-.2-.3z"/>
        <path d="M-146.2 13.8c-.7 0-1.2.5-1.2 1.2s.5 1.2 1.2 1.2 1.2-.5 1.2-1.2c0-.6-.5-1.2-1.2-1.2zm0 1.8c-.3 0-.6-.3-.6-.6s.3-.6.6-.6.6.3.6.6c0 .4-.3.6-.6.6z"/>
        <path d="M-141.9 11.7c-.7 0-1.2.5-1.2 1.2s.5 1.2 1.2 1.2 1.2-.5 1.2-1.2-.6-1.2-1.2-1.2zm0 1.8c-.3 0-.6-.3-.6-.6s.3-.6.6-.6.6.3.6.6-.3.6-.6.6z"/>
        <path d="M-138.3 29.3c-.7 0-1.2.5-1.2 1.2s.5 1.2 1.2 1.2 1.2-.5 1.2-1.2-.5-1.2-1.2-1.2zm0 1.8c-.3 0-.6-.3-.6-.6s.3-.6.6-.6.6.3.6.6-.3.6-.6.6z"/>
        <path d="M-149.5 23.2c0-.7-.5-1.2-1.2-1.2s-1.2.5-1.2 1.2.5 1.2 1.2 1.2c.6 0 1.2-.5 1.2-1.2zm-1.8 0c0-.3.3-.6.6-.6s.6.3.6.6-.3.6-.6.6c-.4 0-.6-.3-.6-.6z"/>
        <path d="M-146.5 31.1c.7 0 1.2-.5 1.2-1.2s-.5-1.2-1.2-1.2-1.2.5-1.2 1.2c0 .6.5 1.2 1.2 1.2zm0-1.8c.3 0 .6.3.6.6s-.3.6-.6.6-.6-.3-.6-.6c0-.4.3-.6.6-.6z"/>
        <path d="M-146.2 34.1c-.7 0-1.2.5-1.2 1.2s.5 1.2 1.2 1.2 1.2-.5 1.2-1.2c0-.6-.5-1.2-1.2-1.2zm0 1.8c-.3 0-.6-.3-.6-.6s.3-.6.6-.6.6.3.6.6c0 .4-.3.6-.6.6z"/>
        <path d="M-141.9 36.2c-.7 0-1.2.5-1.2 1.2s.5 1.2 1.2 1.2 1.2-.5 1.2-1.2c0-.6-.6-1.2-1.2-1.2zm0 1.9c-.3 0-.6-.3-.6-.6s.3-.6.6-.6.6.3.6.6-.3.6-.6.6z"/>
        <path d="M-149.5 26.8c-.7 0-1.2.5-1.2 1.2s.5 1.2 1.2 1.2 1.2-.5 1.2-1.2c0-.6-.5-1.2-1.2-1.2zm0 1.9c-.3 0-.6-.3-.6-.6s.3-.6.6-.6.6.3.6.6-.3.6-.6.6z"/>
        <path d="M-126.2 37v-2.6h-2.6v.6h2v2z"/>
        <path d="M-125.3 29.4v-2.6h-2.6v.7h2v1.9z"/>
        <path d="M-124.4 20.9h.6v-2.5h-2.5v.6h1.9z"/>
        <path d="M-129.1 12.6v.6h2v2h.6v-2.6z"/>
        <path d="M-131.3 10.9V8.4h-2.6V9h2v1.9z"/>
    </g>
  </g>
</svg>
