<?xml version="1.0" encoding="UTF-8" standalone="no"?>
<svg
   xmlns:dc="http://purl.org/dc/elements/1.1/"
   xmlns:cc="http://creativecommons.org/ns#"
   xmlns:rdf="http://www.w3.org/1999/02/22-rdf-syntax-ns#"
   xmlns:svg="http://www.w3.org/2000/svg"
   xmlns="http://www.w3.org/2000/svg"
   height="21"
   width="21"
   xml:space="preserve"
   viewBox="0 0 21 21"
   y="0px"
   x="0px"
   id="icons"
   version="1.1"><metadata
     id="metadata3494"><rdf:RDF><cc:Work
         rdf:about=""><dc:format>image/svg+xml</dc:format><dc:type
           rdf:resource="http://purl.org/dc/dcmitype/StillImage" /><dc:title></dc:title></cc:Work></rdf:RDF></metadata><defs
     id="defs3492" /><path
     id="path3488"
     d="M 10.5,0 C 4.7,0 0,4.7 0,10.5 0,16.3 4.7,21 10.5,21 c 2.100001,0 4.200001,-0.6 5.9,-1.8 L 14.700001,16.7 C 13.500001,17.6 12,18 10.5,18 6.4,18 3,14.6 3,10.5 3,6.4 6.4,3 10.5,3 14.600001,3 18,6.4 18,10.5 l 0,0.8 c 0,0.6 -0.1,1.7 -1.1,1.7 l -0.4,0 c -0.3,0 -0.9,-0.6 -0.9,-0.9 l 0,-1.6 0,0 c 0,-2.8 -2.3,-5.1 -5.1,-5.1 -2.8,0 -5.1,2.3 -5.1,5.1 0,2.8 2.3,5.1 5.1,5.1 1.2,0 2.2,-0.4 3.1,-1.1 0.8,0.9 1.8,1.5 2.9,1.5 l 0.4,0 c 2.4,0 4.1,-1.9 4.1,-4.7 l 0,-0.8 C 21,4.7 16.3,0 10.5,0 Z m 0,12.6 c -1.2,0 -2.1,-0.9 -2.1,-2.1 0,-1.1999996 0.9,-2.0999996 2.1,-2.0999996 1.2,0 2.100001,0.9 2.100001,2.0999996 0,1.2 -0.900001,2.1 -2.100001,2.1 z"
      /></svg>