<?xml version="1.0" encoding="UTF-8" standalone="no"?>
<svg
   xmlns:dc="http://purl.org/dc/elements/1.1/"
   xmlns:cc="http://creativecommons.org/ns#"
   xmlns:rdf="http://www.w3.org/1999/02/22-rdf-syntax-ns#"
   xmlns:svg="http://www.w3.org/2000/svg"
   xmlns="http://www.w3.org/2000/svg"
   height="20"
   width="20"
   xml:space="preserve"
   viewBox="0 0 20 20"
   y="0px"
   x="0px"
   id="icons"
   version="1.1"><metadata
     id="metadata3403"><rdf:RDF><cc:Work
         rdf:about=""><dc:format>image/svg+xml</dc:format><dc:type
           rdf:resource="http://purl.org/dc/dcmitype/StillImage" /><dc:title></dc:title></cc:Work></rdf:RDF></metadata><defs
     id="defs3401" /><g
     transform="translate(-241,-1586)"
     id="g3387"><path
       id="path3389"
       d="m 259,1586 -16,0 c -1.1,0 -2,0.9 -2,2 l 0,16 c 0,1.1 0.9,2 2,2 l 16,0 c 1.1,0 2,-0.9 2,-2 l 0,-16 c 0,-1.1 -0.9,-2 -2,-2 z m 0,2 0,4 -0.4,0 -1.6,1.6 -4.1,-4.1 -4,5 -2.9,-2.9 -2.4,2.4 -0.6,0 0,-6 16,0 z m -16,16 0,-8 1.4,0 1.6,-1.6 3.1,3.1 4,-5 3.9,3.9 2,-2 0,9.6 -16,0 z"
        /><rect
       id="rect3391"
       height="3"
       width="2"
       y="1600"
       x="244" /><rect
       id="rect3393"
       height="5"
       width="2"
       y="1598"
       x="248" /><rect
       id="rect3395"
       height="3"
       width="2"
       y="1600"
       x="252" /><rect
       id="rect3397"
       height="5"
       width="2"
       y="1598"
       x="256" /></g></svg>