<?xml version="1.0" encoding="UTF-8" standalone="no"?>
<svg
   xmlns:dc="http://purl.org/dc/elements/1.1/"
   xmlns:cc="http://creativecommons.org/ns#"
   xmlns:rdf="http://www.w3.org/1999/02/22-rdf-syntax-ns#"
   xmlns:svg="http://www.w3.org/2000/svg"
   xmlns="http://www.w3.org/2000/svg"
   height="16"
   width="20"
   xml:space="preserve"
   viewBox="0 0 20 16"
   y="0px"
   x="0px"
   id="icons"
   version="1.1"><metadata
     id="metadata3382"><rdf:RDF><cc:Work
         rdf:about=""><dc:format>image/svg+xml</dc:format><dc:type
           rdf:resource="http://purl.org/dc/dcmitype/StillImage" /><dc:title></dc:title></cc:Work></rdf:RDF></metadata><defs
     id="defs3380" /><path
     id="path3368"
     d="M 20,13 20,4 C 20,3.4 19.6,3 19,3 L 16,3 16,0 0,0 0,13 c 0,1.7 1.3,3 3,3 l 14,0 c 1.7,0 3,-1.3 3,-3 z M 14.2,14 3,14 C 2.4,14 2,13.6 2,13 L 2,2 14,2 14,13 c 0,0.4 0.1,0.7 0.2,1 z M 18,13 c 0,0.6 -0.4,1 -1,1 -0.6,0 -1,-0.4 -1,-1 l 0,-8 2,0 0,8 z"
      /><rect
     id="rect3370"
     height="2"
     width="10"
     y="10"
     x="3" /><rect
     id="rect3372"
     height="2"
     width="4"
     y="7"
     x="9" /><rect
     id="rect3374"
     height="2"
     width="4"
     y="4"
     x="9" /><rect
     id="rect3376"
     height="5"
     width="5"
     y="4"
     x="3" /></svg>