<?xml version="1.0" encoding="UTF-8" standalone="no"?>
<svg
   xmlns:dc="http://purl.org/dc/elements/1.1/"
   xmlns:cc="http://creativecommons.org/ns#"
   xmlns:rdf="http://www.w3.org/1999/02/22-rdf-syntax-ns#"
   xmlns:svg="http://www.w3.org/2000/svg"
   xmlns="http://www.w3.org/2000/svg"
   height="15"
   width="24"
   xml:space="preserve"
   viewBox="0 0 24 15"
   y="0px"
   x="0px"
   id="icons"
   version="1.1"><metadata
     id="metadata3459"><rdf:RDF><cc:Work
         rdf:about=""><dc:format>image/svg+xml</dc:format><dc:type
           rdf:resource="http://purl.org/dc/dcmitype/StillImage" /><dc:title></dc:title></cc:Work></rdf:RDF></metadata><defs
     id="defs3457" /><g
     transform="translate(-560,-944)"
     id="g3437"><g
       id="g3439"><path
         id="path3441"
         d="m 582,959 -20,0 c -1.1,0 -2,-0.9 -2,-2 l 0,-11 c 0,-1.1 0.9,-2 2,-2 l 20,0 c 1.1,0 2,0.9 2,2 l 0,11 c 0,1.1 -0.9,2 -2,2 z m -20,-13 0,11 20,0 0,-11 -20,0 z"
          /></g><g
       id="g3443"><rect
         id="rect3445"
         height="2"
         width="8"
         y="950"
         x="564" /></g><g
       id="g3447"><rect
         id="rect3449"
         height="2"
         width="8"
         y="953"
         x="564" /></g><g
       id="g3451"><rect
         id="rect3453"
         height="4"
         width="4"
         y="947"
         x="576" /></g></g></svg>