<?xml version="1.0" encoding="UTF-8" standalone="no"?>
<svg
   xmlns:dc="http://purl.org/dc/elements/1.1/"
   xmlns:cc="http://creativecommons.org/ns#"
   xmlns:rdf="http://www.w3.org/1999/02/22-rdf-syntax-ns#"
   xmlns:svg="http://www.w3.org/2000/svg"
   xmlns="http://www.w3.org/2000/svg"
   height="20"
   width="20"
   xml:space="preserve"
   viewBox="0 0 20 20"
   y="0px"
   x="0px"
   id="icons"
   version="1.1"><metadata
     id="metadata3345"><rdf:RDF><cc:Work
         rdf:about=""><dc:format>image/svg+xml</dc:format><dc:type
           rdf:resource="http://purl.org/dc/dcmitype/StillImage" /><dc:title></dc:title></cc:Work></rdf:RDF></metadata><defs
     id="defs3343" /><path
     id="path3339"
     d="M 18,0 2,0 C 0.9,0 0,0.9 0,2 l 0,10 c 0,1.1 0.9,2 2,2 l 5.6,0 -6,6 2.8,0 4.6,-4.6 0,4.6 2,0 0,-4.6 4.6,4.6 2.8,0 -6,-6 5.6,0 c 1.1,0 2,-0.9 2,-2 L 20,2 C 20,0.9 19.1,0 18,0 Z M 18,2 18,4 2,4 2,2 18,2 Z M 2,12 2,6 18,6 18,12 2,12 Z"
      /></svg>