<?xml version="1.0" encoding="UTF-8" standalone="no"?>
<svg
   xmlns:dc="http://purl.org/dc/elements/1.1/"
   xmlns:cc="http://creativecommons.org/ns#"
   xmlns:rdf="http://www.w3.org/1999/02/22-rdf-syntax-ns#"
   xmlns:svg="http://www.w3.org/2000/svg"
   xmlns="http://www.w3.org/2000/svg"
   height="20"
   width="22"
   xml:space="preserve"
   viewBox="0 0 22 20"
   y="0px"
   x="0px"
   id="icons"
   version="1.1"><metadata
     id="metadata3490"><rdf:RDF><cc:Work
         rdf:about=""><dc:format>image/svg+xml</dc:format><dc:type
           rdf:resource="http://purl.org/dc/dcmitype/StillImage" /><dc:title></dc:title></cc:Work></rdf:RDF></metadata><defs
     id="defs3488" /><g
     transform="translate(-561,-941)"
     id="g3472"><g
       id="g3474"><g
         id="g3476"><path
           id="path3478"
           d="m 569,953 c -2.2,0 -4,-1.8 -4,-4 0,-2.2 1.8,-4 4,-4 2.2,0 4,1.8 4,4 0,2.2 -1.8,4 -4,4 z m 0,-6 c -1.1,0 -2,0.9 -2,2 0,1.1 0.9,2 2,2 1.1,0 2,-0.9 2,-2 0,-1.1 -0.9,-2 -2,-2 z"
            /></g><g
         id="g3480"><path
           id="path3482"
           d="m 577,961 -16,0 0,-1 c 0,-3.5 3.3,-6 8,-6 4.7,0 8,2.5 8,6 l 0,1 z m -13.8,-2 11.7,0 c -0.6,-1.8 -2.8,-3 -5.8,-3 -3,0 -5.3,1.2 -5.9,3 z"
            /></g></g><polygon
       id="polygon3484"
       points="578,941 578,944 575,944 575,946 578,946 578,949 580,949 580,946 583,946 583,944 580,944 580,941 "
        /></g></svg>