<svg id="Layer_1" data-name="Layer 1" xmlns="http://www.w3.org/2000/svg" viewBox="0 0 24.54 24.54"><defs><style>.cls-1{fill-rule:evenodd;}</style></defs><title>skype</title><path class="cls-1" d="M322.15,185.83a12.59,12.59,0,0,0,.15-1.85,11.46,11.46,0,0,0-11.46-11.46,12.49,12.49,0,0,0-1.85.14,6.63,6.63,0,0,0-9.36,8.91,11.26,11.26,0,0,0-.25,2.41,11.46,11.46,0,0,0,11.46,11.45,11.33,11.33,0,0,0,2.41-.25,6.63,6.63,0,0,0,8.9-9.35Zm-7.83,4.7a9.63,9.63,0,0,1-5.62.34c-2.34-.56-3.39-1.89-3.58-3a1.42,1.42,0,0,1,2.57-1.09c.23.27.43.54.66.81,1.29,1.53,4.07,1.38,5,.15a1.36,1.36,0,0,0,0-1.64c-.41-.52-.88-.52-4.83-1.52s-3.78-4.39-2.66-6.05a5.5,5.5,0,0,1,4.29-2c2.8-.22,5.89,1.11,6.17,2.94a1.25,1.25,0,0,1-1,1.5c-1.06.25-1.43-.43-2-1.05a3.71,3.71,0,0,0-4.42-.46,1.25,1.25,0,0,0-.12,2c1,.79,4.22,1,5.79,1.7a3.67,3.67,0,0,1,2.38,3.53A4,4,0,0,1,314.32,190.53Z" transform="translate(-298.7 -171.56)"/></svg>