<svg xmlns="http://www.w3.org/2000/svg"><symbol id="logo-nav" viewBox="0 0 347 141"><path d="M50.2 31.9v15.9l-.2.2-.1.2-12.4 10.5v23.4l13.2 12.2v15.2l26.8 16.1 13.6-8.6V89.6l-.5.1h-.8l-.5-.1V116l-11.8 7.4-10-6 10-6.4-.4-.4c-.2-.2-.3-.4-.4-.7l-.2-.5-10.8 6.9-13.1-7.9v-14l10.9-7-.5-.3c-.2-.2-.3-.4-.4-.7l-.2-.5-10.7 6.9-12.3-11.5v-7.5l10.9-7-.4-.4c-.2-.2-.3-.4-.4-.7l-.2-.5-9.8 6.3V59.6l11.9-10.1 13.5 9.3v14l-8 5.1.4.4c.2.2.3.4.4.7l.2.5 8-5.1 12.2 7.9v11.5l-10.8 6.7.4.4c.2.2.3.4.4.7l.2.5L89 89.4l-.4-.4c-.2-.2-.3-.4-.4-.7l-.2-.5-8 4.9V81.2l-13.2-8.5v-14L80 49.3V35l-.5.1h-.8l-.8-.1v13.3L65.7 57l-13.6-9.4V32.8L64.8 24v13.1l.5-.1h.8l.5.1V22.8l8.9-6.2 13.7 10.1v58.4l.5-.1h.8l.5.1V25.8L75.6 14.3 50.2 31.9zm57.8 8.8l4.3 4.4 1.3 1.3 1.4-1.3 11.3-11.3-1.4-1.4-11.3 11.3-5.6-5.6-15.4 15.4 1.3 1.3zm-9.4-13.1l1.5 1.5 1.3 1.3 1.4-1.3 8.4-8.5-1.3-1.3-8.5 8.4-2.8-2.8-6 6 1.3 1.4zm12.2 32.9l6.2 6.2 1.4 1.3 1.3-1.3 15-15.1-1.3-1.3-15 15.1-7.6-7.6-18.2 18.3 1.3 1.3zm15.1 39.6l-14.1 14.1-8.1-8.9v-.1l-.7-.6-.6-.7-.7.7-.7.6h.1l-8.5 8.5 1.3 1.3 8.4-8.4 8.2 9h-.1l.7.6.6.7h.1l.6-.6.7-.7 14.1-14.1zm-9.4-11.2l-6.9-6.9-.6-.7v.1l-.1-.1-.6.7-15.7 14.7 1.3 1.4 15-14.1 6.2 6.2 1.4 1.3 1.3-1.3L130 78l-1.3-1.4z"/><path d="M65.7 35.6c-2.1 0-3.8 1.7-3.8 3.8s1.7 3.8 3.8 3.8 3.8-1.7 3.8-3.8c-.1-2.1-1.7-3.8-3.8-3.8zm0 5.7c-1 0-1.9-.8-1.9-1.9 0-1 .8-1.9 1.9-1.9 1 0 1.9.8 1.9 1.9 0 1-.9 1.9-1.9 1.9zm13.2-12.2c-2.1 0-3.8 1.7-3.8 3.8s1.7 3.8 3.8 3.8c2.1 0 3.8-1.7 3.8-3.8-.1-2.2-1.8-3.8-3.8-3.8zm0 5.6c-1 0-1.9-.8-1.9-1.9 0-1 .8-1.9 1.9-1.9 1 0 1.9.8 1.9 1.9-.1 1.1-.9 1.9-1.9 1.9zm11.2 48.9c-2.1 0-3.8 1.7-3.8 3.8 0 2.1 1.7 3.8 3.8 3.8 2.1 0 3.8-1.7 3.8-3.8 0-2.1-1.7-3.8-3.8-3.8zm0 5.7c-1 0-1.9-.8-1.9-1.9 0-1 .8-1.9 1.9-1.9 1 0 1.9.8 1.9 1.9 0 1-.8 1.8-1.9 1.9zM55.3 64.8c0-2.1-1.7-3.8-3.8-3.8s-3.8 1.7-3.8 3.8 1.7 3.8 3.8 3.8c2.2 0 3.8-1.7 3.8-3.8zm-5.6 0c0-1 .8-1.9 1.9-1.9 1 0 1.9.8 1.9 1.9 0 1-.8 1.9-1.9 1.9-1.1 0-1.9-.9-1.9-1.9zm15 24.5c2.1 0 3.8-1.7 3.8-3.8 0-2.1-1.7-3.8-3.8-3.8-2.1 0-3.8 1.7-3.8 3.8.1 2.1 1.8 3.8 3.8 3.8zm0-5.7c1 0 1.9.8 1.9 1.9 0 1-.8 1.9-1.9 1.9-1 0-1.9-.8-1.9-1.9.1-1 .9-1.9 1.9-1.9zm1 15.1c-2.1 0-3.8 1.7-3.8 3.8 0 2.1 1.7 3.8 3.8 3.8s3.8-1.7 3.8-3.8c-.1-2.2-1.7-3.8-3.8-3.8zm0 5.6c-1 0-1.9-.8-1.9-1.9 0-1 .8-1.9 1.9-1.9 1 0 1.9.8 1.9 1.9s-.9 1.9-1.9 1.9zm13.2.9c-2.1 0-3.8 1.7-3.8 3.8 0 2.1 1.7 3.8 3.8 3.8 2.1 0 3.8-1.7 3.8-3.8-.1-2.1-1.8-3.8-3.8-3.8zm0 5.7c-1 0-1.9-.8-1.9-1.9 0-1 .8-1.9 1.9-1.9 1 0 1.9.8 1.9 1.9-.1 1-.9 1.9-1.9 1.9zM55.3 76.1c-2.1 0-3.8 1.7-3.8 3.8 0 2.1 1.7 3.8 3.8 3.8s3.8-1.7 3.8-3.8c0-2.1-1.7-3.8-3.8-3.8zm0 5.6c-1 0-1.9-.8-1.9-1.9 0-1 .8-1.9 1.9-1.9 1 0 1.9.8 1.9 1.9 0 1.1-.8 1.9-1.9 1.9zm64.5 19.8h6.1v6.1h1.9v-8h-8zm2.8-23.5h6.1v6.1h1.9v-8h-8zm4.7-28.2v1.8h6.1v6.1h1.9v-7.9zm-2.4-9.9h1.9v-8h-8v1.9h6.1zm-21.1-19.3h6.1v6.1h1.9v-8h-8zm58.4 36.6V19.4h3.5l7.4 25.9c.8 3.1 1.3 5.3 1.5 6.7h.1c-.2-5.4-.3-10.7-.3-16.8V19.4h2.7v37.8h-3.3l-8.3-29.4c-.6-1.9-.8-3.3-1-4.3h-.1c.2 4.5.4 11.2.4 18.1v15.7h-2.6zm36.2-19h-8.6v16.5h9.7l-.4 2.5H187V19.4h11.9V22h-9.1v13.7h8.6v2.5zm11.1-18.8v29.8c0 3.3 1.2 5.9 4.5 5.9s4.5-2.2 4.5-5.8V19.4h2.8v29.7c0 5.8-2.6 8.6-7.4 8.6-4.7 0-7.2-2.7-7.2-8.4V19.4h2.8zm21.5 0h5.6c5.7 0 8 2.5 8 8.4v1.9c0 4.6-1.4 7.2-3.9 8 2.5.8 3.5 2.8 3.5 7.8 0 3.3-.1 9.3.4 11.7H242c-.5-2.4-.4-8.9-.4-11.4 0-5.1-.8-6.7-4.8-6.7h-3.1v18.2H231V19.4zm2.7 17.2h3.3c4 0 4.8-2.7 4.8-6.7V28c0-3.9-1.2-6.1-5.3-6.1h-2.7v14.7zm23 7.2l-2.2 13.4h-2.8l6.3-37.8h4l6.6 37.8h-2.9l-2.3-13.4h-6.7zm6.3-2.5c-1.6-9.6-2.7-16.3-3-19.4h-.1c-.1 2.8-1.6 11.6-2.8 19.4h5.9zm13-21.9h2.8v35.3h9.5l-.4 2.5H276V19.4zM162.2 79.8h12.1v2.5H165v14h8.7v2.5H165v18.7h-2.8V79.8zm22.2 0v37.8h-2.8V79.8h2.8zm9.9 37.8V79.8h3.5l7.4 25.9c.8 3.1 1.3 5.3 1.5 6.7h.1c-.2-5.4-.3-10.7-.3-16.8V79.8h2.7v37.8h-3.3l-8.3-29.4c-.6-1.9-.8-3.3-1-4.3h-.1c.2 4.5.4 11.2.4 18.1v15.7h-2.6zm27.6-13.4l-2.2 13.4h-2.8l6.3-37.8h4l6.6 37.8h-2.9l-2.3-13.4h-6.7zm6.3-2.5c-1.6-9.6-2.7-16.3-3-19.4h-.1c-.1 2.8-1.6 11.6-2.8 19.4h5.9zm13 15.9V79.8h3.5l7.4 25.9c.8 3.1 1.3 5.3 1.5 6.7h.1c-.2-5.4-.3-10.7-.3-16.8V79.8h2.7v37.8h-3.3l-8.3-29.4c-.6-1.9-.8-3.3-1-4.3h-.1c.2 4.5.4 11.2.4 18.1v15.7h-2.6zm38.1-10.5v1.1c0 5.2-1 9.9-7 9.9-6.2 0-7.1-4.8-7.1-10.2V88.5c0-6.2 2.5-9.2 7.1-9.2 5.8 0 6.9 4.4 6.9 9.1v1.3h-2.9v-1.4c0-3.3-.4-6.5-4-6.5-3.5 0-4.2 2.8-4.2 6.7v19.4c0 4.7 1.1 7.6 4.3 7.6 3.6 0 4.1-3.2 4.1-7.3V107h2.8zm19.5-8.5h-8.6v16.5h9.7l-.4 2.5h-12.1V79.8h11.9v2.5h-9.1V96h8.6v2.6z"/></symbol><symbol id="logo" viewBox="0 0 31.5 35.900001"><path d="M4.1 5.7v5.1l-.1.1v.1l-4 3.4v7.5l4.2 3.9v4.9l8.6 5.2 4.4-2.8v-8.8h-.6v8.5l-3.8 2.4-3.2-1.9 3.2-2.1-.1-.1c-.1-.1-.1-.1-.1-.2l-.1-.2L9 32.9l-4.2-2.5v-4.5l3.5-2.3-.1-.1c-.1-.1-.1-.1-.1-.2l-.1-.2-3.4 2.2-4-3.7v-2.4l3.5-2.3-.1-.1c-.1-.1-.1-.1-.1-.2l-.1-.2-3.2 2v-3.8l3.8-3.3 4.3 3v4.5l-2.6 1.6.1.1c.1.1.1.1.1.2l.1.2L9 19.3l3.9 2.5v3.7l-3.5 2.1.1.1c.1.1.1.1.1.2l.1.2 6.7-4.1-.1-.1c-.1-.1-.1-.1-.1-.2l-.1-.2-2.6 1.6v-3.7l-4.2-2.7v-4.5l4.2-3V6.6h-.6v4.3L9 13.7l-4.4-3V5.9l4.1-2.8v4.2h.6V2.8l2.9-2 4.4 3.3v18.8h.6V3.7l-5-3.7-8.1 5.7zM25 10l3.6-3.7-.4-.4-3.6 3.6-1.9-1.8-4.9 5 .4.4 4.5-4.5 1.4 1.4.5.4zM21.1 4.8l2.7-2.7-.4-.5-2.8 2.8-.9-.9-1.9 1.9.4.4 1.5-1.5.5.5.4.4zM26.5 16.9l4.9-4.8-.5-.5-4.8 4.9-2.4-2.4-5.9 5.8.4.5 5.5-5.5 2 2 .4.4zM21.4 29.3l-.3-.2-.1-.2h-.1l-.2.2-.2.2-2.7 2.8.4.4 2.7-2.7 2.6 2.9.2.2.2.2h.1l.2-.2.2-.2 4.5-4.6-.4-.4-4.5 4.5-2.7-2.9zM23.1 21.6l-.3.3-5 4.7.4.4 4.8-4.5 2 2 .5.4.4-.4 3.9-3.9-.4-.5-3.9 4-2.2-2.2-.2-.3z"/><path d="M9.1 6.9c-.7 0-1.2.5-1.2 1.2s.5 1.2 1.2 1.2 1.2-.5 1.2-1.2c0-.6-.5-1.2-1.2-1.2zm0 1.8c-.3 0-.6-.3-.6-.6s.3-.6.6-.6.6.3.6.6c0 .4-.3.6-.6.6zM13.4 4.8c-.7 0-1.2.5-1.2 1.2s.5 1.2 1.2 1.2 1.2-.5 1.2-1.2-.6-1.2-1.2-1.2zm0 1.8c-.3 0-.6-.3-.6-.6s.3-.6.6-.6.6.3.6.6-.3.6-.6.6zM17 22.4c-.7 0-1.2.5-1.2 1.2s.5 1.2 1.2 1.2 1.2-.5 1.2-1.2-.5-1.2-1.2-1.2zm0 1.8c-.3 0-.6-.3-.6-.6s.3-.6.6-.6.6.3.6.6-.3.6-.6.6zM5.8 16.3c0-.7-.5-1.2-1.2-1.2s-1.2.5-1.2 1.2.5 1.2 1.2 1.2c.6 0 1.2-.5 1.2-1.2zm-1.8 0c0-.3.3-.6.6-.6s.6.3.6.6-.3.6-.6.6c-.4 0-.6-.3-.6-.6zM8.8 24.2c.7 0 1.2-.5 1.2-1.2s-.5-1.2-1.2-1.2-1.2.5-1.2 1.2c0 .6.5 1.2 1.2 1.2zm0-1.8c.3 0 .6.3.6.6s-.3.6-.6.6-.6-.3-.6-.6c0-.4.3-.6.6-.6zM9.1 27.2c-.7 0-1.2.5-1.2 1.2s.5 1.2 1.2 1.2 1.2-.5 1.2-1.2c0-.6-.5-1.2-1.2-1.2zm0 1.8c-.3 0-.6-.3-.6-.6s.3-.6.6-.6.6.3.6.6c0 .4-.3.6-.6.6zM13.4 29.3c-.7 0-1.2.5-1.2 1.2s.5 1.2 1.2 1.2 1.2-.5 1.2-1.2c0-.6-.6-1.2-1.2-1.2zm0 1.9c-.3 0-.6-.3-.6-.6s.3-.6.6-.6.6.3.6.6-.3.6-.6.6zM5.8 19.9c-.7 0-1.2.5-1.2 1.2s.5 1.2 1.2 1.2S7 21.8 7 21.1c0-.6-.5-1.2-1.2-1.2zm0 1.9c-.3 0-.6-.3-.6-.6s.3-.6.6-.6.6.3.6.6-.3.6-.6.6zM29.1 30.1v-2.6h-2.6v.6h2v2zM30 22.5v-2.6h-2.6v.7h2v1.9zM30.9 14h.6v-2.5H29v.6h1.9zM26.2 5.7v.6h2v2h.6V5.7zM24 4V1.5h-2.6v.6h2V4z"/></symbol></svg>