<svg xmlns="http://www.w3.org/2000/svg"><defs><style>.cls-1{fill-rule:evenodd}</style><path id="a" d="M184 327h243.84v138.96H184z"/></defs><symbol id="bubble" viewBox="0 0 20 20"><path d="M4 20v-4H2c-1.1 0-2-.9-2-2V2C0 .9.9 0 2 0h16c1.1 0 2 .9 2 2v12c0 1.1-.9 2-2 2H9.3L4 20zM2 2v12h4v2l2.7-2H18V2H2z"/></symbol><symbol id="contacts" viewBox="0 0 20 18"><path d="M3 14c0-1.8 1.2-3 3-3s3 1.2 3 3H3z"/><circle r="2" cy="299" cx="439" transform="translate(-433 -291)"/><path d="M11 8h6v2h-6zM11 12h6v2h-6z"/><path d="M18 2h-5.2C12.4.8 11.3 0 10 0 8.7 0 7.6.8 7.2 2H2C.9 2 0 2.9 0 4v12c0 1.1.9 2 2 2h16c1.1 0 2-.9 2-2V4c0-1.1-.9-2-2-2zm-8 0c.6 0 1 .4 1 1s-.4 1-1 1-1-.4-1-1 .4-1 1-1zM2 16V4h5.2c.4 1.2 1.5 2 2.8 2 1.3 0 2.4-.8 2.8-2H18v12H2z"/></symbol><symbol id="faq" viewBox="0 0 20 20"><path d="M10 0C4.5 0 0 4.5 0 10s4.5 10 10 10 10-4.5 10-10S15.5 0 10 0zm0 18c-4.4 0-8-3.6-8-8s3.6-8 8-8 8 3.6 8 8-3.6 8-8 8z"/><path d="M9.9 5C8.2 5 7.2 6 7.2 6l1 1.2s.7-.6 1.5-.6 1.4.5 1.4 1.2c0 1.5-2.3 1.8-2.3 3.9v.7h1.7v-.6c0-1.5 2.5-1.8 2.5-4.2C13 6 11.5 5 9.9 5zM8.8 13.6h1.7v1.7H8.8z"/></symbol><symbol id="feature1" viewBox="0 0 75.17 89.59"><title>feature1</title><path d="M37 .09L1.5 10.59a2.1 2.1 0 0 0-1.5 2v40.5a2.1 2.1 0 0 0 .2.89c.46 1 11.54 24.34 36.54 35.43a2.1 2.1 0 0 0 1.7 0c25-11.11 36.08-34.44 36.54-35.43a2.1 2.1 0 0 0 .2-.89V12.6a2.1 2.1 0 0 0-1.5-2L38.18.09a2 2 0 0 0-1.18 0zm-1.5 84.09C15.66 74.08 5.68 55.55 4.19 52.61V14.17L35.5 4.9v10.65a2.12 2.12 0 0 0 .1.62 26.66 26.66 0 0 0-.1 53.13zm4.18-68.63V4.9l31.31 9.26v38.45c-1.48 2.94-11.42 21.45-31.31 31.57V69.3a26.66 26.66 0 0 0 18.16-43.9 2.092 2.092 0 1 0-3.18 2.72 22.41 22.41 0 1 1-10.48-6.82 2.091 2.091 0 1 0 1.22-4 26.58 26.58 0 0 0-5.82-1.09 2 2 0 0 0 .1-.66z"/><path d="M40.1 29.22v-2.09a2.09 2.09 0 0 0-4.18 0v2.09h-1c-4.9 0-8.87 3.4-8.87 7.59v.3c0 2.38 1.67 4.45 5 6.14a2.27 2.27 0 0 0 .55.2l3.26.64 1.14.23v7.38h-1c-2.54 0-4.69-1.56-4.69-3.42v-1.75a2.09 2.09 0 0 0-4.18 0v1.77c0 4.2 4 7.61 8.87 7.61h1v1.88a2.09 2.09 0 1 0 4.18 0v-1.9h.22c4.89 0 8.86-3.41 8.86-7.6v-.3c0-1.66-.88-4.08-5.08-6.23l-.21-.07a.85.85 0 0 0-.17-.06 1.15 1.15 0 0 0-.17-.06h-.09l-3.44-.69V33.4h.22c2.54 0 4.69 1.56 4.69 3.41a2.09 2.09 0 0 0 4.18 0c0-4.19-4-7.6-8.87-7.6h-.22zm-4.19 10.83l-3.28-.65c-1.8-1-2.44-1.84-2.44-2.29v-.3c0-1.85 2.14-3.41 4.68-3.41h1v6.65zm6.52 5.57c1.76.94 2.56 1.88 2.56 2.37v.31c0 1.86-2.14 3.42-4.68 3.42h-.21v-6.57z"/></symbol><symbol id="feature2" viewBox="0 0 89.38 83.27"><title>feature2</title><path d="M9.93 36.66a2.1 2.1 0 0 0 .76 4 2.21 2.21 0 0 0 .75-.14c1.23-.48 30.45-12 47.83-37.29A2.09 2.09 0 0 0 57.13 0L44.36 2.62a2.092 2.092 0 1 0 .83 4.1l7.43-1.5C35.73 26.5 10.2 36.55 9.93 36.66z"/><path d="M12.4 79.08H4.13a2.1 2.1 0 0 0 0 4.19h82.8a2.1 2.1 0 0 0 0-4.19h-5.65V22.57h6a2.09 2.09 0 0 0 1.56-3.49L74.71 3.27a2.16 2.16 0 0 0-3.12 0L57.45 19.08a2.09 2.09 0 0 0 1.56 3.49h6v56.51h-8.86v-45.5a2.1 2.1 0 0 0-2.1-2.09H41.99a2.1 2.1 0 0 0-2.06 2.09v45.5H23.04A17.72 17.72 0 1 0 5.19 49.65a17.72 17.72 0 0 0 7.21 29.43zm54.72-60.7H63.7l9.45-10.57 9.45 10.57h-3.42a2.1 2.1 0 0 0-2.09 2.09v58.61h-7.87V20.47a2.1 2.1 0 0 0-2.1-2.09zm-23 17.3h7.81v43.4h-7.85zM8.15 52.61a13.53 13.53 0 1 1-4 9.57 13.47 13.47 0 0 1 4-9.57z"/><path d="M13.65 66.01a2.09 2.09 0 0 0-4.18 0c0 3.17 2.87 5.74 6.42 5.77v.2a2.1 2.1 0 0 0 4.19 0v-.23c3.29-.27 5.88-2.74 5.88-5.74v-.19c0-1.29-.64-3.16-3.67-4.76a1 1 0 0 0-.16-.06 2.65 2.65 0 0 0-.3-.11.29.29 0 0 0-.1 0h-.06l-1.59-.32v-3.71c1 .2 1.7.88 1.7 1.51a2.1 2.1 0 0 0 4.19 0c0-3-2.6-5.47-5.89-5.74a2.1 2.1 0 0 0-4.19 0c-3.55 0-6.42 2.6-6.42 5.76v.19c0 1.29.62 3.15 3.6 4.71a2.13 2.13 0 0 0 .55.2h.2l2.07.43v3.65c-1.32-.01-2.24-.82-2.24-1.56zm0-7.64c0-.74.91-1.55 2.23-1.57v2.86l-1.12-.23c-1-.56-1.11-.88-1.11-.87zm6.92 6.53a3.94 3.94 0 0 1 1.19.92v.19c0 .7-.74 1.32-1.69 1.52v-2.74z"/></symbol><symbol id="feature3" viewBox="0 0 89.35 89.62"><title>feature3</title><path d="M2.1 77.88h30.06v7.55H21.98a2.1 2.1 0 0 0 0 4.19h45.39a2.1 2.1 0 1 0 0-4.19H57.19v-7.55h22.19a10 10 0 0 0 10-10V19.6a2.09 2.09 0 0 0-2.1-2.09H65.91a2.09 2.09 0 0 0 0 4.18h19.25v46.22a5.78 5.78 0 0 1-5.78 5.78H4.19v-7.91h73.44a2.1 2.1 0 1 0 0-4.19H4.19v-39.9h18.19a2.09 2.09 0 1 0 0-4.18H2.1A2.09 2.09 0 0 0 0 19.6v56.18a2.1 2.1 0 0 0 2.1 2.1zm50.91 0v7.55H36.35v-7.55z"/><path d="M43.19 67.99a2.1 2.1 0 1 0 3 0 2.16 2.16 0 0 0-3 0zM44.68 23.85a7 7 0 0 0 7-7 2.1 2.1 0 0 0-4.19 0 2.81 2.81 0 1 1-2.82-2.81 2.09 2.09 0 1 0 0-4.18 7 7 0 0 0 0 14z"/><path d="M40.81 33.7a2 2 0 0 0 .55-.07 2.11 2.11 0 0 0 1.27-1l1.57-2.72a10.09 10.09 0 0 0 1.1 0l1.6 2.7a2.13 2.13 0 0 0 1.28 1 2.06 2.06 0 0 0 1.59-.23l6.94-4.11a2.1 2.1 0 0 0 .73-2.87l-1.6-2.71q.21-.35.39-.69h3.15a2.1 2.1 0 0 0 2.1-2.1v-8.08a2.1 2.1 0 0 0-2.1-2.1h-3.15c-.14-.27-.3-.54-.47-.81l1.58-2.73a2.1 2.1 0 0 0 .21-1.59 2.06 2.06 0 0 0-1-1.27l-7-4a2.13 2.13 0 0 0-2.87.77l-1.53 2.69a10.09 10.09 0 0 0-1.1 0l-1.6-2.67a2.12 2.12 0 0 0-1.29-1 2.09 2.09 0 0 0-1.58.22l-6.94 4.12a2.1 2.1 0 0 0-.73 2.87l1.6 2.72a7.69 7.69 0 0 0-.39.69h-3.16a2.09 2.09 0 0 0-2.09 2.09v8.07a2.1 2.1 0 0 0 2.09 2.09h3.14c.15.28.31.55.48.82L32 26.53a2.1 2.1 0 0 0 .77 2.86l7 4a2 2 0 0 0 1.04.31zm-3.1-11.32a8.78 8.78 0 0 1-1.31-2.27 2.08 2.08 0 0 0-1.95-1.33H32.1v-3.87h2.39a2.07 2.07 0 0 0 1.95-1.33 8.87 8.87 0 0 1 1.25-2.17 2.12 2.12 0 0 0 .15-2.36l-1.27-2.06 3.34-2 1.19 2.12a2.11 2.11 0 0 0 2.12 1 7.84 7.84 0 0 1 2.73 0 2.1 2.1 0 0 0 2.12-1l1.2-2.08 3.36 1.94-1.2 2.07a2.11 2.11 0 0 0 .18 2.35 8.51 8.51 0 0 1 1.3 2.26 2.11 2.11 0 0 0 1.95 1.33h2.4v3.88h-2.4a2.07 2.07 0 0 0-1.91 1.25 8.88 8.88 0 0 1-1.24 2.17 2.1 2.1 0 0 0-.16 2.37l1.22 2.07-3.33 2-1.23-2.06a2.08 2.08 0 0 0-2.14-1 7.64 7.64 0 0 1-2.7 0 2.11 2.11 0 0 0-2.13 1l-1.2 2.08-3.36-1.93 1.2-2.08a2.07 2.07 0 0 0-.17-2.35zM12.31 32.55a2.1 2.1 0 0 0-2.09 2.1v20.94a2.1 2.1 0 0 0 2.09 2.09h19.68a2.1 2.1 0 0 0 2.11-2.09V34.65a2.1 2.1 0 0 0-2.1-2.1zM29.9 53.49H14.41V36.74H29.9zM79.73 46.37v-6.7a2.1 2.1 0 0 0-2.1-2.09H40.78a2.1 2.1 0 0 0-2.09 2.09v6.7a2.1 2.1 0 0 0 2.09 2.1h36.85a2.1 2.1 0 0 0 2.1-2.1zm-4.19-2.09H42.88v-2.51h32.66zM40.79 50.49a2.1 2.1 0 1 0 0 4.19h22.19a2.1 2.1 0 0 0 0-4.19z"/></symbol><symbol id="feature4" viewBox="0 0 63.71 89.54"><title>feature4</title><path d="M17.91 49.75c-1.59 1.46-3.19 2.92-4.79 4.36-5.26 4.74-7.86 11.14-8 19.6v11.64H2.09a2.09 2.09 0 0 0 0 4.18h59.52a2.09 2.09 0 0 0 0-4.18h-3.06V73.69c-.1-8.44-2.71-14.84-8-19.57-1.64-1.48-3.26-3-4.88-4.46l-3.81-3.48a4.32 4.32 0 0 1-1.75-3 4.73 4.73 0 0 1 1.83-3.12q1.88-1.7 3.73-3.41c1.62-1.49 3.24-3 4.88-4.45 5.26-4.73 7.87-11.13 8-19.59V4.19h3.06a2.1 2.1 0 0 0 0-4.19H2.09a2.1 2.1 0 0 0 0 4.19h3.06v8.4c.1 8.43 2.71 14.83 8 19.57 1.62 1.45 3.22 2.93 4.82 4.4l3.87 3.53a4.66 4.66 0 0 1 1.76 3 4.37 4.37 0 0 1-1.76 3c-1.34 1.27-2.59 2.47-3.93 3.66zm.92 35.34a16 16 0 1 1 26.42.24H34.03a2.13 2.13 0 0 0 .22-.87v-.29c3.36-.23 6-2.71 6-5.84v-.2c0-1.32-.65-3.22-3.76-4.86a1 1 0 0 0-.16-.06 2 2 0 0 0-.26-.09h-.2l-1.62-.41V68.8c1.05.18 1.89.87 1.89 1.64a2.1 2.1 0 0 0 4.19 0c0-3.08-2.68-5.61-6.08-5.85v-.13a2.1 2.1 0 1 0-4.19 0v.09c-3.65 0-6.62 2.64-6.62 5.88v.2c0 1.89 1.24 3.51 3.68 4.79a1.82 1.82 0 0 0 .55.2H27.88l2.18.45v3.89c-1.3 0-2.43-.79-2.43-1.7a2.1 2.1 0 0 0-4.19 0c0 3.25 3 5.89 6.62 5.89v.31a2 2 0 0 0 .19.86H18.97a1.57 1.57 0 0 0-.14-.23zm11.2-13.24l-1.24-.25a3.09 3.09 0 0 1-1.19-1v-.14c0-.9 1.13-1.69 2.43-1.69v3.1zm4.8 5.26a3.78 3.78 0 0 1 1.27 1v.2c0 .78-.83 1.46-1.88 1.65v-3zM24.62 49.28c2.6-2.35 3.14-4.65 3.13-6.16a8.36 8.36 0 0 0-3.11-6.11v-.05c-1.39-1.2-2.62-2.35-3.87-3.5-1.61-1.48-3.22-3-4.85-4.42-4.4-4-6.5-9.21-6.58-16.49V4.19h45v8.35c-.09 7.3-2.18 12.55-6.58 16.51-1.65 1.48-3.28 3-4.91 4.47q-1.89 1.74-3.79 3.47a8.3 8.3 0 0 0-3.09 6.08c0 1.51.53 3.81 3.13 6.16l3.79 3.47c1.63 1.49 3.26 3 4.91 4.48 4.4 4 6.49 9.2 6.58 16.48v11.69h-4.26a20.23 20.23 0 1 0-36 0H9.33V73.74c.09-7.3 2.19-12.55 6.59-16.52 1.62-1.45 3.22-2.92 4.81-4.39z"/><path d="M27.92 35.56a12.39 12.39 0 0 1 1.32 3 2 2 0 0 0 .32.66 2.84 2.84 0 0 0 5-.25 2 2 0 0 0 .19-.53.29.29 0 0 0 0-.09A7.17 7.17 0 0 1 36 35.56a.32.32 0 0 1 .06-.08 8 8 0 0 1 .62-.76l.32-.33c.15-.15.29-.31.44-.45 1.06-1 2.1-1.91 3.15-2.87 1.34-1.23 2.69-2.47 4.05-3.69a14.87 14.87 0 0 0 3-3.66 2.1 2.1 0 0 0-2.77-2.91c-2.85 1.45-4.29 2.09-6.21 2.09a20.62 20.62 0 0 1-6-1.25 18.9 18.9 0 0 0-5.83-.93 19.55 19.55 0 0 0-8.27 1.88 2.1 2.1 0 0 0-.7 3.25 18.27 18.27 0 0 0 1.44 1.61c1.36 1.22 2.71 2.46 4.05 3.69l3.15 2.88c.14.12.25.25.37.37l.14.15.2.2h.06a7.86 7.86 0 0 1 .59.73zm-1.73-7.53l-2.94-2.65a14.47 14.47 0 0 1 3.51-.43 14.91 14.91 0 0 1 4.55.72 23.57 23.57 0 0 0 7.42 1.45c-.33.31-6.6 6.7-6.81 7.06-.17-.4-4.67-5.2-5.73-6.15zM30.37 44.65a2.1 2.1 0 0 0 0 3 2.08 2.08 0 0 0 3 0 2.08 2.08 0 0 0 0-3 2.17 2.17 0 0 0-3 0zM30.37 50.02a2.1 2.1 0 1 0 3 0 2.16 2.16 0 0 0-3 0z"/></symbol><symbol id="google-plus" viewBox="0 0 512 512"><path d="M314.262 288.662c-12.359 82.097-74.152 126.234-153.6 126.234C71.503 414.897 0 345.159 0 256S71.503 97.103 160.662 97.103c43.255 0 81.214 12.359 108.579 38.841l-46.786 46.786c-15.007-15.89-37.076-23.834-61.793-23.834-52.966 0-98.869 44.138-98.869 97.103s45.903 97.103 98.869 97.103c44.138 0 77.683-28.248 87.393-70.621h-89.159V220.69h155.366c1.766 10.593 2.648 23.834 2.648 35.31 0 11.476-.882 22.069-2.648 32.662M512 264.828h-52.966v52.965h-44.137v-52.965h-52.966V220.69h52.966v-52.966h44.137v52.966H512z"/></symbol><symbol id="info" viewBox="0 0 20 20"><path d="M11 16H9V7h2v9zm0-10H9V4h2v2z"/><path d="M10 20C4.5 20 0 15.5 0 10S4.5 0 10 0s10 4.5 10 10-4.5 10-10 10zm0-18c-4.4 0-8 3.6-8 8s3.6 8 8 8 8-3.6 8-8-3.6-8-8-8z"/></symbol><symbol id="instagram" viewBox="0 0 24.1 24.1"><style id="style3379">.st0{fill-rule:evenodd;clip-rule:evenodd}</style><g transform="translate(-298.7 -219.8)" id="g3381"><path id="path3383" d="M319 219.8h-16.5c-2.1 0-3.8 1.7-3.8 3.8v16.5c0 2.1 1.7 3.8 3.8 3.8H319c2.1 0 3.8-1.7 3.8-3.8v-16.5c0-2.1-1.7-3.8-3.8-3.8zm-3.1 3.3c0-.4.3-.7.7-.7h2.9c.4 0 .7.3.7.7v2.9c0 .4-.3.7-.7.7h-2.9c-.4 0-.7-.3-.7-.7v-2.9zm-9.6 7c.7-1.8 2.4-3 4.4-3 2 0 3.7 1.3 4.4 3 .2.5.3 1.1.3 1.7 0 2.6-2.1 4.8-4.8 4.8-2.6 0-4.8-2.1-4.8-4.8.2-.6.3-1.2.5-1.7zm13.9 10c0 .7-.5 1.2-1.2 1.2h-16.5c-.7 0-1.2-.5-1.2-1.2v-10h2.4c-.1.6-.2 1.1-.2 1.7 0 4 3.3 7.3 7.3 7.3s7.3-3.3 7.3-7.3c0-.6-.1-1.2-.2-1.7h2.4v10z" clip-rule="evenodd" fill-rule="evenodd"/></g></symbol><symbol id="invest" viewBox="0 0 20 19"><path d="M18 3V2h-2v1h-2V1c0-.6-.4-1-1-1H7c-.6 0-1 .4-1 1v2H4V2H2v1C.9 3 0 3.9 0 5v12c0 1.1.9 2 2 2h16c1.1 0 2-.9 2-2V5c0-1.1-.9-2-2-2zM8 2h4v1H8V2zm10 15H2V5h16v12z"/><path d="M11 6H9v1.1c-1.1.2-2 1.2-2 2.4C7 10.9 8.1 12 9.5 12h1c.3 0 .5.2.5.5s-.2.5-.5.5H7v2h2v1h2v-1.1c1.1-.2 2-1.2 2-2.4 0-1.4-1.1-2.5-2.5-2.5h-1c-.3 0-.5-.2-.5-.5s.2-.5.5-.5H13V7h-2V6z"/></symbol><symbol id="logo-nav" viewBox="0 0 262.39999 111.3"><path d="M12.7 17.6v15.9l-.2.2-.1.2L0 44.4v23.4L13.2 80v15.2L40 111.3l13.6-8.6V75.3l-.5.1h-.8l-.5-.1v26.4L40 109.1l-10-6 10-6.4-.4-.4c-.2-.2-.3-.4-.4-.7l-.2-.5-10.8 6.9-13.1-7.9v-14l10.9-7-.5-.3c-.2-.2-.3-.4-.4-.7l-.2-.5-10.7 6.9L1.9 67v-7.5l10.9-7-.4-.4c-.2-.2-.3-.4-.4-.7l-.2-.5L2 57.2V45.3l11.9-10.1 13.5 9.3v14l-8 5.1.4.4c.2.2.3.4.4.7l.2.5 8-5.1L40.6 68v11.5l-10.8 6.7.4.4c.2.2.3.4.4.7l.2.5 20.7-12.7-.4-.4c-.2-.2-.3-.4-.4-.7l-.2-.5-8 4.9V66.9l-13.2-8.5v-14L42.5 35V20.7l-.5.1h-.8l-.8-.1V34l-12.2 8.7-13.6-9.4V18.5l12.7-8.8v13.1l.5-.1h.8l.5.1V8.5L38 2.3l13.7 10.1v58.4l.5-.1h.8l.5.1V11.5L38.1 0 12.7 17.6zm57.8 8.8l4.3 4.4 1.3 1.3 1.4-1.3 11.3-11.3-1.4-1.4-11.3 11.3-5.6-5.6-15.4 15.4 1.3 1.3zm-9.4-13.1l1.5 1.5 1.3 1.3 1.4-1.3 8.4-8.5L72.4 5l-8.5 8.4-2.8-2.8-6 6 1.3 1.4zm12.2 32.9l6.2 6.2 1.4 1.3 1.3-1.3 15-15.1-1.3-1.3-15 15.1-7.6-7.6-18.2 18.3 1.3 1.3zm15.1 39.6L74.3 99.9 66.2 91v-.1l-.7-.6-.6-.7-.7.7-.7.6h.1l-8.5 8.5 1.3 1.3 8.4-8.4 8.2 9h-.1l.7.6.6.7h.1l.6-.6.7-.7 14.1-14.1zM79 74.6l-6.9-6.9-.6-.7v.1l-.1-.1-.6.7-15.7 14.7 1.3 1.4 15-14.1 6.2 6.2 1.4 1.3 1.3-1.3 12.2-12.2-1.3-1.4z"/><path d="M28.2 21.3c-2.1 0-3.8 1.7-3.8 3.8 0 2.1 1.7 3.8 3.8 3.8 2.1 0 3.8-1.7 3.8-3.8-.1-2.1-1.7-3.8-3.8-3.8zm0 5.7c-1 0-1.9-.8-1.9-1.9 0-1 .8-1.9 1.9-1.9 1 0 1.9.8 1.9 1.9 0 1-.9 1.9-1.9 1.9zm13.2-12.2c-2.1 0-3.8 1.7-3.8 3.8 0 2.1 1.7 3.8 3.8 3.8 2.1 0 3.8-1.7 3.8-3.8-.1-2.2-1.8-3.8-3.8-3.8zm0 5.6c-1 0-1.9-.8-1.9-1.9 0-1 .8-1.9 1.9-1.9 1 0 1.9.8 1.9 1.9-.1 1.1-.9 1.9-1.9 1.9zm11.2 48.9c-2.1 0-3.8 1.7-3.8 3.8 0 2.1 1.7 3.8 3.8 3.8 2.1 0 3.8-1.7 3.8-3.8 0-2.1-1.7-3.8-3.8-3.8zm0 5.7c-1 0-1.9-.8-1.9-1.9 0-1 .8-1.9 1.9-1.9 1 0 1.9.8 1.9 1.9 0 1-.8 1.8-1.9 1.9zM17.8 50.5c0-2.1-1.7-3.8-3.8-3.8-2.1 0-3.8 1.7-3.8 3.8 0 2.1 1.7 3.8 3.8 3.8 2.2 0 3.8-1.7 3.8-3.8zm-5.6 0c0-1 .8-1.9 1.9-1.9 1 0 1.9.8 1.9 1.9 0 1-.8 1.9-1.9 1.9-1.1 0-1.9-.9-1.9-1.9zm15 24.5c2.1 0 3.8-1.7 3.8-3.8 0-2.1-1.7-3.8-3.8-3.8-2.1 0-3.8 1.7-3.8 3.8.1 2.1 1.8 3.8 3.8 3.8zm0-5.7c1 0 1.9.8 1.9 1.9 0 1-.8 1.9-1.9 1.9-1 0-1.9-.8-1.9-1.9.1-1 .9-1.9 1.9-1.9zm1 15.1c-2.1 0-3.8 1.7-3.8 3.8 0 2.1 1.7 3.8 3.8 3.8 2.1 0 3.8-1.7 3.8-3.8-.1-2.2-1.7-3.8-3.8-3.8zm0 5.6c-1 0-1.9-.8-1.9-1.9 0-1 .8-1.9 1.9-1.9 1 0 1.9.8 1.9 1.9 0 1.1-.9 1.9-1.9 1.9zm13.2.9c-2.1 0-3.8 1.7-3.8 3.8 0 2.1 1.7 3.8 3.8 3.8 2.1 0 3.8-1.7 3.8-3.8-.1-2.1-1.8-3.8-3.8-3.8zm0 5.7c-1 0-1.9-.8-1.9-1.9 0-1 .8-1.9 1.9-1.9 1 0 1.9.8 1.9 1.9-.1 1-.9 1.9-1.9 1.9zM17.8 61.8c-2.1 0-3.8 1.7-3.8 3.8 0 2.1 1.7 3.8 3.8 3.8 2.1 0 3.8-1.7 3.8-3.8 0-2.1-1.7-3.8-3.8-3.8zm0 5.6c-1 0-1.9-.8-1.9-1.9 0-1 .8-1.9 1.9-1.9 1 0 1.9.8 1.9 1.9 0 1.1-.8 1.9-1.9 1.9zm64.5 19.8h6.1v6.1h1.9v-8h-8zm2.8-23.5h6.1v6.1h1.9v-8h-8zm4.7-28.2v1.8h6.1v6.1h1.9v-7.9zm-2.4-9.9h1.9v-8h-8v1.9h6.1zM66.3 6.3h6.1v6.1h1.9v-8h-8zm58.4 36.6V5.1h3.5l7.4 25.9c.8 3.1 1.3 5.3 1.5 6.7h.1c-.2-5.4-.3-10.7-.3-16.8V5.1h2.7v37.8h-3.3L128 13.5c-.6-1.9-.8-3.3-1-4.3h-.1c.2 4.5.4 11.2.4 18.1V43h-2.6zm36.2-19h-8.6v16.5h9.7l-.4 2.5h-12.1V5.1h11.9v2.6h-9.1v13.7h8.6v2.5zM172 5.1v29.8c0 3.3 1.2 5.9 4.5 5.9s4.5-2.2 4.5-5.8V5.1h2.8v29.7c0 5.8-2.6 8.6-7.4 8.6-4.7 0-7.2-2.7-7.2-8.4V5.1h2.8zm21.5 0h5.6c5.7 0 8 2.5 8 8.4v1.9c0 4.6-1.4 7.2-3.9 8 2.5.8 3.5 2.8 3.5 7.8 0 3.3-.1 9.3.4 11.7h-2.6c-.5-2.4-.4-8.9-.4-11.4 0-5.1-.8-6.7-4.8-6.7h-3.1V43h-2.7V5.1zm2.7 17.2h3.3c4 0 4.8-2.7 4.8-6.7v-1.9c0-3.9-1.2-6.1-5.3-6.1h-2.7v14.7zm23 7.2L217 42.9h-2.8l6.3-37.8h4l6.6 37.8h-2.9l-2.3-13.4h-6.7zm6.3-2.5c-1.6-9.6-2.7-16.3-3-19.4h-.1c-.1 2.8-1.6 11.6-2.8 19.4h5.9zm13-21.9h2.8v35.3h9.5l-.4 2.5h-11.9V5.1zM124.7 65.5h12.1V68h-9.3v14h8.7v2.5h-8.7v18.7h-2.8V65.5zm22.2 0v37.8h-2.8V65.5h2.8zm9.9 37.8V65.5h3.5l7.4 25.9c.8 3.1 1.3 5.3 1.5 6.7h.1c-.2-5.4-.3-10.7-.3-16.8V65.5h2.7v37.8h-3.3l-8.3-29.4c-.6-1.9-.8-3.3-1-4.3h-.1c.2 4.5.4 11.2.4 18.1v15.7h-2.6zm27.6-13.4l-2.2 13.4h-2.8l6.3-37.8h4l6.6 37.8h-2.9l-2.3-13.4h-6.7zm6.3-2.5c-1.6-9.6-2.7-16.3-3-19.4h-.1c-.1 2.8-1.6 11.6-2.8 19.4h5.9zm13 15.9V65.5h3.5l7.4 25.9c.8 3.1 1.3 5.3 1.5 6.7h.1c-.2-5.4-.3-10.7-.3-16.8V65.5h2.7v37.8h-3.3L207 73.9c-.6-1.9-.8-3.3-1-4.3h-.1c.2 4.5.4 11.2.4 18.1v15.7h-2.6zm38.1-10.5v1.1c0 5.2-1 9.9-7 9.9-6.2 0-7.1-4.8-7.1-10.2V74.2c0-6.2 2.5-9.2 7.1-9.2 5.8 0 6.9 4.4 6.9 9.1v1.3h-2.9V74c0-3.3-.4-6.5-4-6.5-3.5 0-4.2 2.8-4.2 6.7v19.4c0 4.7 1.1 7.6 4.3 7.6 3.6 0 4.1-3.2 4.1-7.3v-1.2h2.8zm19.5-8.5h-8.6v16.5h9.7l-.4 2.5h-12.1V65.5h11.9V68h-9.1v13.7h8.6v2.6z"/></symbol><symbol id="logo" viewBox="0 0 31.5 35.900001"><path d="M4.1 5.7v5.1l-.1.1v.1l-4 3.4v7.5l4.2 3.9v4.9l8.6 5.2 4.4-2.8v-8.8h-.6v8.5l-3.8 2.4-3.2-1.9 3.2-2.1-.1-.1c-.1-.1-.1-.1-.1-.2l-.1-.2L9 32.9l-4.2-2.5v-4.5l3.5-2.3-.1-.1c-.1-.1-.1-.1-.1-.2l-.1-.2-3.4 2.2-4-3.7v-2.4l3.5-2.3-.1-.1c-.1-.1-.1-.1-.1-.2l-.1-.2-3.2 2v-3.8l3.8-3.3 4.3 3v4.5l-2.6 1.6.1.1c.1.1.1.1.1.2l.1.2L9 19.3l3.9 2.5v3.7l-3.5 2.1.1.1c.1.1.1.1.1.2l.1.2 6.7-4.1-.1-.1c-.1-.1-.1-.1-.1-.2l-.1-.2-2.6 1.6v-3.7l-4.2-2.7v-4.5l4.2-3V6.6h-.6v4.3L9 13.7l-4.4-3V5.9l4.1-2.8v4.2h.6V2.8l2.9-2 4.4 3.3v18.8h.6V3.7l-5-3.7-8.1 5.7zM25 10l3.6-3.7-.4-.4-3.6 3.6-1.9-1.8-4.9 5 .4.4 4.5-4.5 1.4 1.4.5.4zM21.1 4.8l2.7-2.7-.4-.5-2.8 2.8-.9-.9-1.9 1.9.4.4 1.5-1.5.5.5.4.4zM26.5 16.9l4.9-4.8-.5-.5-4.8 4.9-2.4-2.4-5.9 5.8.4.5 5.5-5.5 2 2 .4.4zM21.4 29.3l-.3-.2-.1-.2h-.1l-.2.2-.2.2-2.7 2.8.4.4 2.7-2.7 2.6 2.9.2.2.2.2h.1l.2-.2.2-.2 4.5-4.6-.4-.4-4.5 4.5-2.7-2.9zM23.1 21.6l-.3.3-5 4.7.4.4 4.8-4.5 2 2 .5.4.4-.4 3.9-3.9-.4-.5-3.9 4-2.2-2.2-.2-.3z"/><path d="M9.1 6.9c-.7 0-1.2.5-1.2 1.2s.5 1.2 1.2 1.2 1.2-.5 1.2-1.2c0-.6-.5-1.2-1.2-1.2zm0 1.8c-.3 0-.6-.3-.6-.6s.3-.6.6-.6.6.3.6.6c0 .4-.3.6-.6.6zM13.4 4.8c-.7 0-1.2.5-1.2 1.2s.5 1.2 1.2 1.2 1.2-.5 1.2-1.2-.6-1.2-1.2-1.2zm0 1.8c-.3 0-.6-.3-.6-.6s.3-.6.6-.6.6.3.6.6-.3.6-.6.6zM17 22.4c-.7 0-1.2.5-1.2 1.2s.5 1.2 1.2 1.2 1.2-.5 1.2-1.2-.5-1.2-1.2-1.2zm0 1.8c-.3 0-.6-.3-.6-.6s.3-.6.6-.6.6.3.6.6-.3.6-.6.6zM5.8 16.3c0-.7-.5-1.2-1.2-1.2s-1.2.5-1.2 1.2.5 1.2 1.2 1.2c.6 0 1.2-.5 1.2-1.2zm-1.8 0c0-.3.3-.6.6-.6s.6.3.6.6-.3.6-.6.6c-.4 0-.6-.3-.6-.6zM8.8 24.2c.7 0 1.2-.5 1.2-1.2s-.5-1.2-1.2-1.2-1.2.5-1.2 1.2c0 .6.5 1.2 1.2 1.2zm0-1.8c.3 0 .6.3.6.6s-.3.6-.6.6-.6-.3-.6-.6c0-.4.3-.6.6-.6zM9.1 27.2c-.7 0-1.2.5-1.2 1.2s.5 1.2 1.2 1.2 1.2-.5 1.2-1.2c0-.6-.5-1.2-1.2-1.2zm0 1.8c-.3 0-.6-.3-.6-.6s.3-.6.6-.6.6.3.6.6c0 .4-.3.6-.6.6zM13.4 29.3c-.7 0-1.2.5-1.2 1.2s.5 1.2 1.2 1.2 1.2-.5 1.2-1.2c0-.6-.6-1.2-1.2-1.2zm0 1.9c-.3 0-.6-.3-.6-.6s.3-.6.6-.6.6.3.6.6-.3.6-.6.6zM5.8 19.9c-.7 0-1.2.5-1.2 1.2s.5 1.2 1.2 1.2S7 21.8 7 21.1c0-.6-.5-1.2-1.2-1.2zm0 1.9c-.3 0-.6-.3-.6-.6s.3-.6.6-.6.6.3.6.6-.3.6-.6.6zM29.1 30.1v-2.6h-2.6v.6h2v2zM30 22.5v-2.6h-2.6v.7h2v1.9zM30.9 14h.6v-2.5H29v.6h1.9zM26.2 5.7v.6h2v2h.6V5.7zM24 4V1.5h-2.6v.6h2V4z"/></symbol><symbol id="mail" viewBox="0 0 21 21"><path d="M10.5 0C4.7 0 0 4.7 0 10.5S4.7 21 10.5 21c2.1 0 4.2-.6 5.9-1.8l-1.7-2.5c-1.2.9-2.7 1.3-4.2 1.3C6.4 18 3 14.6 3 10.5S6.4 3 10.5 3 18 6.4 18 10.5v.8c0 .6-.1 1.7-1.1 1.7h-.4c-.3 0-.9-.6-.9-.9v-1.6c0-2.8-2.3-5.1-5.1-5.1s-5.1 2.3-5.1 5.1 2.3 5.1 5.1 5.1c1.2 0 2.2-.4 3.1-1.1.8.9 1.8 1.5 2.9 1.5h.4c2.4 0 4.1-1.9 4.1-4.7v-.8C21 4.7 16.3 0 10.5 0zm0 12.6c-1.2 0-2.1-.9-2.1-2.1 0-1.2.9-2.1 2.1-2.1 1.2 0 2.1.9 2.1 2.1 0 1.2-.9 2.1-2.1 2.1z"/></symbol><symbol id="marketing" viewBox="0 0 20 20"><path d="M18 0H2C.9 0 0 .9 0 2v16c0 1.1.9 2 2 2h16c1.1 0 2-.9 2-2V2c0-1.1-.9-2-2-2zm0 2v4h-.4L16 7.6l-4.1-4.1-4 5L5 5.6 2.6 8H2V2h16zM2 18v-8h1.4L5 8.4l3.1 3.1 4-5 3.9 3.9 2-2V18H2z"/><path d="M3 14h2v3H3zM7 12h2v5H7zM11 14h2v3h-2zM15 12h2v5h-2z"/></symbol><symbol id="news" viewBox="0 0 20 16"><path d="M20 13V4c0-.6-.4-1-1-1h-3V0H0v13c0 1.7 1.3 3 3 3h14c1.7 0 3-1.3 3-3zm-5.8 1H3c-.6 0-1-.4-1-1V2h12v11c0 .4.1.7.2 1zm3.8-1c0 .6-.4 1-1 1s-1-.4-1-1V5h2v8z"/><path d="M3 10h10v2H3zM9 7h4v2H9zM9 4h4v2H9zM3 4h5v5H3z"/></symbol><symbol id="phone" viewBox="0 0 17 17"><path d="M16 11h-4a1 1 0 0 0-1 1v1a6.91 6.91 0 0 1-7-7h1a1 1 0 0 0 1-1V1a1 1 0 0 0-1-1H1a1 1 0 0 0-1 1v5a11 11 0 0 0 11 11h5a1 1 0 0 0 1-1v-4a1 1 0 0 0-1-1z"/></symbol><symbol id="place" viewBox="0 0 20 20"><circle cx="10" cy="5" r="1.5"/><path class="cls-1" d="M19.9 17.37l-2.44-5a2 2 0 0 0-1.9-1.37h-2.34A23.26 23.26 0 0 0 15 5 5 5 0 0 0 5 5a23 23 0 0 0 1.79 6H4.44a2 2 0 0 0-1.89 1.37l-2.45 5A2 2 0 0 0 2 20h16a2 2 0 0 0 1.9-2.63zM10 2a3 3 0 0 1 3 3c0 1.47-2.44 7.65-3 9-.56-1.37-3-7.52-3-9a3 3 0 0 1 3-3z"/></symbol><symbol id="skype" viewBox="0 0 24.54 24.54"><title>skype</title><path class="cls-1" d="M322.15 185.83a12.59 12.59 0 0 0 .15-1.85 11.46 11.46 0 0 0-11.46-11.46 12.49 12.49 0 0 0-1.85.14 6.63 6.63 0 0 0-9.36 8.91 11.26 11.26 0 0 0-.25 2.41 11.46 11.46 0 0 0 11.46 11.45 11.33 11.33 0 0 0 2.41-.25 6.63 6.63 0 0 0 8.9-9.35zm-7.83 4.7a9.63 9.63 0 0 1-5.62.34c-2.34-.56-3.39-1.89-3.58-3a1.42 1.42 0 0 1 2.57-1.09c.23.27.43.54.66.81 1.29 1.53 4.07 1.38 5 .15a1.36 1.36 0 0 0 0-1.64c-.41-.52-.88-.52-4.83-1.52s-3.78-4.39-2.66-6.05a5.5 5.5 0 0 1 4.29-2c2.8-.22 5.89 1.11 6.17 2.94a1.25 1.25 0 0 1-1 1.5c-1.06.25-1.43-.43-2-1.05a3.71 3.71 0 0 0-4.42-.46 1.25 1.25 0 0 0-.12 2c1 .79 4.22 1 5.79 1.7a3.67 3.67 0 0 1 2.38 3.53 4 4 0 0 1-2.63 3.84z" transform="translate(-298.7 -171.56)"/></symbol><symbol id="telegram" viewBox="0 0 21.45 18.53"><path class="cls-1" d="M19.89.21L.84 7.68s-.9.31-.83.88.81.83.81.83L5.61 11l11.5-7.3s.67-.41.64 0c0 0 .12.07-.23.4l-9 8.14-.63 5.33a.53.53 0 0 0 .51-.07l3.1-2.82 4.82 3.7a1.25 1.25 0 0 0 1.78-.62L21.49.66c-.04-1.14-1.6-.45-1.6-.45z"/></symbol><symbol id="twitter" viewBox="0 0 12.801 10.398"><path d="M12.801 1.23a5.247 5.247 0 0 1-1.508.415c.543-.325.957-.84 1.156-1.454-.508.301-1.07.52-1.672.637a2.626 2.626 0 0 0-4.472 2.395A7.455 7.455 0 0 1 .891.48a2.621 2.621 0 0 0 .812 3.504 2.586 2.586 0 0 1-1.187-.328v.032c0 1.273.906 2.335 2.105 2.578a2.71 2.71 0 0 1-1.187.043 2.635 2.635 0 0 0 2.453 1.824A5.277 5.277 0 0 1 .625 9.254c-.211 0-.418-.012-.625-.035a7.432 7.432 0 0 0 4.027 1.179c4.828 0 7.469-4 7.469-7.468l-.008-.34a5.29 5.29 0 0 0 1.313-1.36zm0 0"/></symbol><symbol id="vk" viewBox="0 0 243.48854 137.7917"><g transform="translate(-184 -327.208)"><path d="M393.555 414.821c8.078 7.887 16.601 15.305 23.847 23.989 3.2 3.855 6.231 7.836 8.547 12.312 3.285 6.363.309 13.367-5.398 13.75l-35.469-.019c-9.152.761-16.449-2.922-22.586-9.176-4.91-5.004-9.461-10.328-14.18-15.5-1.937-2.113-3.964-4.102-6.386-5.672-4.84-3.145-9.043-2.184-11.813 2.867-2.816 5.137-3.457 10.824-3.734 16.551-.379 8.351-2.903 10.547-11.293 10.93-17.934.847-34.949-1.868-50.758-10.911-13.937-7.976-24.746-19.234-34.152-31.976-18.317-24.82-32.344-52.09-44.95-80.121-2.839-6.317-.761-9.707 6.208-9.828 11.57-.223 23.14-.207 34.726-.016 4.703.07 7.816 2.766 9.633 7.211 6.262 15.394 13.922 30.039 23.539 43.617 2.559 3.613 5.172 7.227 8.891 9.774 4.113 2.816 7.242 1.882 9.179-2.7 1.227-2.906 1.766-6.035 2.043-9.148.914-10.707 1.035-21.395-.57-32.063-.988-6.66-4.738-10.968-11.383-12.23-3.391-.641-2.887-1.902-1.242-3.84 2.848-3.336 5.531-5.414 10.875-5.414h40.09c6.312 1.246 7.715 4.082 8.578 10.43l.035 44.531c-.07 2.461 1.227 9.754 5.656 11.383 3.543 1.156 5.879-1.68 8.004-3.926 9.598-10.187 16.449-22.227 22.57-34.691 2.715-5.485 5.051-11.176 7.313-16.864 1.68-4.222 4.309-6.297 9.063-6.207l38.585.035c1.141 0 2.301.016 3.407.207 6.504 1.11 8.285 3.907 6.277 10.254-3.164 9.961-9.32 18.262-15.34 26.602-6.433 8.902-13.316 17.5-19.695 26.457-5.863 8.18-5.399 12.301 1.883 19.402zm0 0" clip-rule="evenodd" fill-rule="evenodd"/></g></symbol></svg>