<?xml version="1.0" encoding="UTF-8" standalone="no"?>
<svg
   xmlns:dc="http://purl.org/dc/elements/1.1/"
   xmlns:cc="http://creativecommons.org/ns#"
   xmlns:rdf="http://www.w3.org/1999/02/22-rdf-syntax-ns#"
   xmlns:svg="http://www.w3.org/2000/svg"
   xmlns="http://www.w3.org/2000/svg"
   height="10.398"
   width="12.801"
   xml:space="preserve"
   viewBox="0 0 12.801 10.398"
   y="0px"
   x="0px"
   id="Слой_1"
   version="1.1"><metadata
     id="metadata4273"><rdf:RDF><cc:Work
         rdf:about=""><dc:format>image/svg+xml</dc:format><dc:type
           rdf:resource="http://purl.org/dc/dcmitype/StillImage" /><dc:title></dc:title></cc:Work></rdf:RDF></metadata><defs
     id="defs4271" /><g
     transform="translate(-299,-391)"
     id="g4265"><path
       d="m 311.801,392.23 c -0.469,0.208 -0.977,0.352 -1.508,0.415 0.543,-0.325 0.957,-0.84 1.156,-1.454 -0.508,0.301 -1.07,0.52 -1.672,0.637 -0.476,-0.508 -1.16,-0.828 -1.914,-0.828 -1.449,0 -2.625,1.176 -2.625,2.625 0,0.207 0.024,0.406 0.067,0.598 -2.184,-0.11 -4.117,-1.153 -5.414,-2.743 -0.227,0.387 -0.356,0.84 -0.356,1.321 0,0.91 0.465,1.715 1.168,2.183 -0.43,-0.011 -0.832,-0.132 -1.187,-0.328 l 0,0.032 c 0,1.273 0.906,2.335 2.105,2.578 -0.219,0.058 -0.453,0.089 -0.691,0.089 -0.168,0 -0.332,-0.015 -0.496,-0.046 0.336,1.043 1.304,1.8 2.453,1.824 -0.899,0.703 -2.032,1.121 -3.262,1.121 -0.211,0 -0.418,-0.012 -0.625,-0.035 1.164,0.746 2.543,1.179 4.027,1.179 4.828,0 7.469,-4 7.469,-7.468 l -0.008,-0.34 c 0.516,-0.371 0.961,-0.832 1.313,-1.36 l 0,0 z m 0,0" /></g></svg>