<?xml version="1.0" encoding="UTF-8" standalone="no"?>
<svg
   xmlns:dc="http://purl.org/dc/elements/1.1/"
   xmlns:cc="http://creativecommons.org/ns#"
   xmlns:rdf="http://www.w3.org/1999/02/22-rdf-syntax-ns#"
   xmlns:svg="http://www.w3.org/2000/svg"
   xmlns="http://www.w3.org/2000/svg"
   xmlns:xlink="http://www.w3.org/1999/xlink"
   height="137.7917"
   width="243.48854"
   xml:space="preserve"
   viewBox="0 0 243.48854 137.7917"
   y="0px"
   x="0px"
   id="Слой_1"
   version="1.1"><metadata
     id="metadata4153"><rdf:RDF><cc:Work
         rdf:about=""><dc:format>image/svg+xml</dc:format><dc:type
           rdf:resource="http://purl.org/dc/dcmitype/StillImage" /><dc:title></dc:title></cc:Work></rdf:RDF></metadata><defs
     id="defs4151" /><g
     transform="translate(-184,-327.208)"
     id="g4137"><g
       id="g4139"><defs
         id="defs4141"><rect
           height="138.96001"
           width="243.84"
           y="327"
           x="184"
           id="SVGID_1_" /></defs><clipPath
         id="SVGID_2_"><use
           height="100%"
           width="100%"
           y="0"
           x="0"
           id="use4145"
           style="overflow:visible"
           xlink:href="#SVGID_1_" /></clipPath><path
         d="m 393.555,414.821 c 8.078,7.887 16.601,15.305 23.847,23.989 3.2,3.855 6.231,7.836 8.547,12.312 3.285,6.363 0.309,13.367 -5.398,13.75 l -35.469,-0.019 c -9.152,0.761 -16.449,-2.922 -22.586,-9.176 -4.91,-5.004 -9.461,-10.328 -14.18,-15.5 -1.937,-2.113 -3.964,-4.102 -6.386,-5.672 -4.84,-3.145 -9.043,-2.184 -11.813,2.867 -2.816,5.137 -3.457,10.824 -3.734,16.551 -0.379,8.351 -2.903,10.547 -11.293,10.93 -17.934,0.847 -34.949,-1.868 -50.758,-10.911 -13.937,-7.976 -24.746,-19.234 -34.152,-31.976 -18.317,-24.82 -32.344,-52.09 -44.95,-80.121 -2.839,-6.317 -0.761,-9.707 6.208,-9.828 11.57,-0.223 23.14,-0.207 34.726,-0.016 4.703,0.07 7.816,2.766 9.633,7.211 6.262,15.394 13.922,30.039 23.539,43.617 2.559,3.613 5.172,7.227 8.891,9.774 4.113,2.816 7.242,1.882 9.179,-2.7 1.227,-2.906 1.766,-6.035 2.043,-9.148 0.914,-10.707 1.035,-21.395 -0.57,-32.063 -0.988,-6.66 -4.738,-10.968 -11.383,-12.23 -3.391,-0.641 -2.887,-1.902 -1.242,-3.84 2.848,-3.336 5.531,-5.414 10.875,-5.414 l 40.09,0 c 6.312,1.246 7.715,4.082 8.578,10.43 l 0.035,44.531 c -0.07,2.461 1.227,9.754 5.656,11.383 3.543,1.156 5.879,-1.68 8.004,-3.926 9.598,-10.187 16.449,-22.227 22.57,-34.691 2.715,-5.485 5.051,-11.176 7.313,-16.864 1.68,-4.222 4.309,-6.297 9.063,-6.207 l 38.585,0.035 c 1.141,0 2.301,0.016 3.407,0.207 6.504,1.11 8.285,3.907 6.277,10.254 -3.164,9.961 -9.32,18.262 -15.34,26.602 -6.433,8.902 -13.316,17.5 -19.695,26.457 -5.863,8.18 -5.399,12.301 1.883,19.402 l 0,0 z m 0,0"
         style="clip-rule:evenodd;fill-rule:evenodd" /></g></g></svg>