<?xml version="1.0" encoding="UTF-8" standalone="no"?>
<svg
   xmlns:dc="http://purl.org/dc/elements/1.1/"
   xmlns:cc="http://creativecommons.org/ns#"
   xmlns:rdf="http://www.w3.org/1999/02/22-rdf-syntax-ns#"
   xmlns:svg="http://www.w3.org/2000/svg"
   xmlns="http://www.w3.org/2000/svg"
   height="21"
   width="19.6"
   xml:space="preserve"
   viewBox="0 0 19.6 21"
   y="0px"
   x="0px"
   id="icons"
   version="1.1"><metadata
     id="metadata3403"><rdf:RDF><cc:Work
         rdf:about=""><dc:format>image/svg+xml</dc:format><dc:type
           rdf:resource="http://purl.org/dc/dcmitype/StillImage" /><dc:title></dc:title></cc:Work></rdf:RDF></metadata><defs
     id="defs3401" /><path
     id="path3389"
     d="m 1.9,21 16,0 c 0.6,0 1,-0.4 1,-1 l 0,-10 c 0,-0.6 -0.4,-1 -1,-1 l -16,0 c -0.6,0 -1,0.4 -1,1 l 0,10 c 0,0.6 0.4,1 1,1 z m 1,-10 14,0 0,8 -14,0 0,-8 z"
      /><circle
     id="circle3391"
     r="2"
     cy="15"
     cx="9.900012"
      /><polygon
     transform="translate(-554.3,-946)"
     id="polygon3393"
     points="564.1,946 561.3,948.8 562.1,949.6 563.5,948.3 563.5,954 564.7,954 564.7,948.3 566,949.6 566.9,948.8 "
      /><polygon
     transform="translate(-554.3,-946)"
     id="polygon3395"
     points="557.1,949 554.3,951.8 555.1,952.6 556.5,951.3 556.5,954 557.7,954 557.7,951.3 559,952.6 559.9,951.8 "
      /><polygon
     transform="translate(-554.3,-946)"
     id="polygon3397"
     points="571.1,949 568.3,951.8 569.1,952.6 570.5,951.3 570.5,954 571.7,954 571.7,951.3 573,952.6 573.9,951.8 "
      /></svg>